<?xml version="1.0" encoding="UTF-8" standalone="no"?>
<!-- Created with Inkscape (http://www.inkscape.org/) -->

<svg
   width="3.5in"
   height="2in"
   viewBox="0 0 88.9 50.8"
   version="1.1"
   id="svg5"
   inkscape:version="1.2.2 (b0a84865, 2022-12-01)"
   sodipodi:docname="Setup.svg"
   inkscape:export-filename="Setup.pdf"
   inkscape:export-xdpi="600.1"
   inkscape:export-ydpi="600.1"
   xmlns:inkscape="http://www.inkscape.org/namespaces/inkscape"
   xmlns:sodipodi="http://sodipodi.sourceforge.net/DTD/sodipodi-0.dtd"
   xmlns="http://www.w3.org/2000/svg"
   xmlns:svg="http://www.w3.org/2000/svg"
   xmlns:ns3="http://www.iki.fi/pav/software/textext/">
  <sodipodi:namedview
     id="namedview7"
     pagecolor="#ffffff"
     bordercolor="#666666"
     borderopacity="1.0"
     inkscape:showpageshadow="2"
     inkscape:pageopacity="0.0"
     inkscape:pagecheckerboard="true"
     inkscape:deskcolor="#d1d1d1"
     inkscape:document-units="pt"
     showgrid="true"
     inkscape:zoom="4.0005946"
     inkscape:cx="223.59176"
     inkscape:cy="92.486252"
     inkscape:window-width="1512"
     inkscape:window-height="916"
     inkscape:window-x="0"
     inkscape:window-y="38"
     inkscape:window-maximized="0"
     inkscape:current-layer="id-98f86335-55bd-4cb9-b308-f13796dba031"
     showguides="false">
    <inkscape:grid
       type="xygrid"
       id="grid132"
       originx="0"
       originy="0" />
  </sodipodi:namedview>
  <defs
     id="defs2">
    <marker
       style="overflow:visible"
       id="Dot"
       refX="0"
       refY="0"
       orient="auto"
       inkscape:stockid="Dot"
       markerWidth="5.6666665"
       markerHeight="5.6666665"
       viewBox="0 0 5.6666667 5.6666667"
       inkscape:isstock="true"
       inkscape:collect="always"
       preserveAspectRatio="xMidYMid">
      <path
         transform="scale(0.5)"
         style="fill:context-stroke;fill-rule:evenodd;stroke:context-stroke;stroke-width:1pt"
         d="M 5,0 C 5,2.76 2.76,5 0,5 -2.76,5 -5,2.76 -5,0 c 0,-2.76 2.3,-5 5,-5 2.76,0 5,2.24 5,5 z"
         id="Dot1"
         sodipodi:nodetypes="sssss" />
    </marker>
    <marker
       inkscape:stockid="DistanceStart"
       orient="auto"
       refY="0"
       refX="0"
       id="marker36642"
       style="overflow:visible"
       markerWidth="5.0999999"
       markerHeight="48.299999"
       viewBox="0 0 5.1 48.3"
       inkscape:isstock="true"
       inkscape:collect="always"
       preserveAspectRatio="xMidYMid">
      <g
         id="g36640"
         transform="scale(0.6)">
        <path
           d="m 0,-40 v 0"
           id="path36634" />
        <path
           id="path36636"
           d="M 0,0 8,5 V -5 Z"
           style="fill:context-stroke;fill-rule:evenodd;stroke:none"
           sodipodi:nodetypes="ccccc" />
        <path
           id="path36638"
           d="M 0,-8 V 40"
           style="fill:none;stroke:context-stroke;stroke-width:1;stroke-linecap:square" />
      </g>
    </marker>
    <marker
       inkscape:stockid="DistanceEnd"
       orient="auto"
       refY="0"
       refX="0"
       id="marker36253"
       style="overflow:visible"
       markerWidth="5.0999999"
       markerHeight="48.299999"
       viewBox="0 0 5.1 48.3"
       inkscape:isstock="true"
       inkscape:collect="always"
       preserveAspectRatio="xMidYMid">
      <g
         id="g36251"
         transform="scale(0.6)">
        <path
           d="m 0,-40 v 0"
           id="path36245" />
        <path
           id="path36247"
           d="M 0,0 -8,5 V -5 Z"
           style="fill:context-stroke;fill-rule:evenodd;stroke:none" />
        <path
           id="path36249"
           d="M 0,-8 V 40"
           style="fill:none;stroke:context-stroke;stroke-width:1;stroke-linecap:square" />
      </g>
    </marker>
    <marker
       inkscape:stockid="DistanceStart"
       orient="auto"
       refY="0"
       refX="0"
       id="marker8008"
       style="overflow:visible"
       markerWidth="5.0999999"
       markerHeight="48.299999"
       viewBox="0 0 5.1 48.3"
       inkscape:isstock="true"
       inkscape:collect="always"
       preserveAspectRatio="xMidYMid">
      <g
         id="g8006"
         transform="scale(0.6)">
        <path
           d="m 0,-40 v 0"
           id="path8000" />
        <path
           id="path8002"
           d="M 0,0 8,5 V -5 Z"
           style="fill:context-stroke;fill-rule:evenodd;stroke:none"
           sodipodi:nodetypes="ccccc" />
        <path
           id="path8004"
           d="M 0,-8 V 40"
           style="fill:none;stroke:context-stroke;stroke-width:1;stroke-linecap:square" />
      </g>
    </marker>
    <marker
       inkscape:stockid="DistanceEnd"
       orient="auto"
       refY="0"
       refX="0"
       id="marker7724"
       style="overflow:visible"
       markerWidth="5.0999999"
       markerHeight="48.299999"
       viewBox="0 0 5.1 48.3"
       inkscape:isstock="true"
       inkscape:collect="always"
       preserveAspectRatio="xMidYMid">
      <g
         id="g7722"
         transform="scale(0.6)">
        <path
           d="m 0,-40 v 0"
           id="path7716" />
        <path
           id="path7718"
           d="M 0,0 -8,5 V -5 Z"
           style="fill:context-stroke;fill-rule:evenodd;stroke:none" />
        <path
           id="path7720"
           d="M 0,-8 V 40"
           style="fill:none;stroke:context-stroke;stroke-width:1;stroke-linecap:square" />
      </g>
    </marker>
    <marker
       inkscape:stockid="DistanceEnd"
       orient="auto"
       refY="0"
       refX="0"
       id="DistanceEnd"
       style="overflow:visible"
       markerWidth="5.0999999"
       markerHeight="48.299999"
       viewBox="0 0 5.1 48.3"
       inkscape:isstock="true"
       inkscape:collect="always"
       preserveAspectRatio="xMidYMid">
      <g
         id="distance2"
         transform="scale(0.6)">
        <path
           d="m 0,-40 v 0"
           id="path6184" />
        <path
           id="path2312"
           d="M 0,0 -8,5 V -5 Z"
           style="fill:context-stroke;fill-rule:evenodd;stroke:none" />
        <path
           id="path2314"
           d="M 0,-8 V 40"
           style="fill:none;stroke:context-stroke;stroke-width:1;stroke-linecap:square" />
      </g>
    </marker>
    <marker
       inkscape:stockid="DistanceStart"
       orient="auto"
       refY="0"
       refX="0"
       id="DistanceStart"
       style="overflow:visible"
       markerWidth="5.0999999"
       markerHeight="48.299999"
       viewBox="0 0 5.1 48.3"
       inkscape:isstock="true"
       inkscape:collect="always"
       preserveAspectRatio="xMidYMid">
      <g
         id="distance1"
         transform="scale(0.6)">
        <path
           d="m 0,-40 v 0"
           id="path6103" />
        <path
           id="path2302"
           d="M 0,0 8,5 V -5 Z"
           style="fill:context-stroke;fill-rule:evenodd;stroke:none"
           sodipodi:nodetypes="ccccc" />
        <path
           id="path2304"
           d="M 0,-8 V 40"
           style="fill:none;stroke:context-stroke;stroke-width:1;stroke-linecap:square" />
      </g>
    </marker>
    <marker
       style="overflow:visible"
       id="marker5840"
       refX="0"
       refY="0"
       orient="auto-start-reverse"
       inkscape:stockid="Arrow2"
       markerWidth="7.6999998"
       markerHeight="5.5999999"
       viewBox="0 0 7.7 5.6"
       inkscape:isstock="true"
       inkscape:collect="always"
       preserveAspectRatio="xMidYMid">
      <path
         transform="scale(0.7)"
         d="M -2,-4 9,0 -2,4 c 2,-2.33 2,-5.66 0,-8 z"
         style="fill:context-stroke;fill-rule:evenodd;stroke:none"
         id="path5838" />
    </marker>
    <marker
       style="overflow:visible"
       id="Arrow1"
       refX="0"
       refY="0"
       orient="auto-start-reverse"
       inkscape:stockid="Arrow1"
       markerWidth="4.0606599"
       markerHeight="6.7071066"
       viewBox="0 0 4.0606602 6.7071068"
       inkscape:isstock="true"
       inkscape:collect="always"
       preserveAspectRatio="xMidYMid">
      <path
         style="fill:none;stroke:context-stroke;stroke-width:1;stroke-linecap:butt"
         d="M 3,-3 0,0 3,3"
         id="path5057"
         transform="rotate(180,0.125,0)"
         sodipodi:nodetypes="ccc" />
    </marker>
    <defs
       id="id-bf102c93-3d58-48ad-964e-3432fb68bb74">
      <g
         id="id-3907b208-0471-43f5-ae07-8715683d8074">
        <g
           id="id-5d37140e-c65e-4084-b7e3-213812473f4a" />
        <g
           id="id-a263e0dc-bf62-4b14-8bb7-fa38dfc84bf6">
          <path
             d="m 5.359375,-5.9375 c -0.140625,0.140625 -0.46875,0.421875 -0.46875,0.59375 0,0.09375 0.09375,0.203125 0.1875,0.203125 0.09375,0 0.140625,-0.078125 0.203125,-0.140625 C 5.390625,-5.421875 5.625,-5.703125 6.0625,-5.921875 6.125,-5.96875 6.234375,-6.015625 6.234375,-6.125 6.234375,-6.234375 6.15625,-6.28125 6.09375,-6.328125 5.875,-6.484375 5.765625,-6.65625 5.6875,-6.890625 5.65625,-6.984375 5.625,-7.125 5.484375,-7.125 c -0.140625,0 -0.203125,0.140625 -0.203125,0.21875 0,0.046875 0.078125,0.359375 0.234375,0.578125 H 2.15625 c -0.15625,0 -0.34375,0 -0.34375,0.203125 0,0.1875 0.1875,0.1875 0.34375,0.1875 z m 0,0"
             id="id-02f1875e-0b03-4f9d-bef0-ae2afd46bb92" />
        </g>
        <g
           id="id-2fdacac2-9aa9-4fbb-9dd1-002345e1dc18" />
        <g
           id="id-dde72d58-bd56-4e21-b2f9-be95804a3a8e">
          <path
             d="M 1.78125,-5.390625 0.625,0 H 2.03125 L 2.625,-2.859375 c 0.171875,-0.8125 0.6875,-1.234375 1.5,-1.234375 0.15625,0 0.25,0.015625 0.4375,0.046875 L 4.859375,-5.46875 c -0.078125,0 -0.140625,0 -0.171875,0 -0.640625,0 -1.28125,0.421875 -1.75,1.140625 l 0.234375,-1.0625 z m 0,0"
             id="id-4981390e-38a7-4ffe-b070-7f09bd298427" />
        </g>
        <g
           id="id-a5172413-c640-4508-aea6-c812845f40c9" />
        <g
           id="id-eb03739f-a463-4b08-8d0e-e91e446b913d">
          <path
             d="M 1.8125,-3.515625 V 0 h 0.609375 v -4.9375 h -0.40625 c -0.21875,0.75 -0.359375,0.859375 -1.3125,0.984375 v 0.4375 z m 0,0"
             id="id-fecee78c-baac-4ce2-a4ed-2d902ad091c3" />
        </g>
      </g>
    </defs>
  </defs>
  <g
     inkscape:label="Layer 1"
     inkscape:groupmode="layer"
     id="layer1">
    <path
       style="fill:none;stroke:#0000ff;stroke-width:0.176389;stroke-linecap:butt;stroke-linejoin:miter;stroke-dasharray:none;stroke-opacity:1;marker-start:url(#marker5840);marker-end:url(#Dot)"
       d="M 57.185526,7.3641202 70.361023,26.957822"
       id="path6304"
       sodipodi:nodetypes="cc" />
    <ellipse
       style="fill:none;fill-opacity:0.215517;stroke:#0000ff;stroke-width:0.176389;stroke-linecap:round;stroke-linejoin:round;stroke-dasharray:none;paint-order:stroke fill markers"
       id="path301"
       ry="2.6309762"
       rx="2.6750712"
       cy="26.924147"
       cx="70.405655" />
    <path
       style="fill:none;stroke:#0000ff;stroke-width:0.176389;stroke-linecap:butt;stroke-linejoin:miter;stroke-dasharray:none;stroke-opacity:1;marker-start:url(#marker36253);marker-end:url(#marker36642)"
       d="m 76.990994,24.278315 v 5.291667"
       id="path2844"
       sodipodi:nodetypes="cc" />
    <path
       style="fill:none;stroke:#000000;stroke-width:0.176389;stroke-linecap:butt;stroke-linejoin:miter;stroke-dasharray:none;stroke-opacity:1;marker-start:url(#Arrow1);marker-end:url(#Arrow1)"
       d="m 42.59516,4.434564 v 22.489584 l 43.635144,0.05292"
       id="path2862"
       sodipodi:nodetypes="ccc" />
    <circle
       style="fill:none;fill-opacity:0.215517;stroke:#ff0000;stroke-width:0.176389;stroke-linecap:round;stroke-linejoin:round;stroke-dasharray:none;paint-order:stroke fill markers"
       id="path1069"
       cx="26.72016"
       cy="26.924147"
       r="13.229166" />
    <path
       style="fill:none;stroke:#ff0000;stroke-width:0.176389;stroke-linecap:butt;stroke-linejoin:miter;stroke-dasharray:none;stroke-opacity:1;marker-start:url(#marker8008);marker-end:url(#marker7724)"
       d="m 9.3183246,40.147368 2.5e-6,-26.458332"
       id="path1071"
       sodipodi:nodetypes="cc" />
    <path
       style="fill:none;stroke:#ff0000;stroke-width:0.176389;stroke-linecap:butt;stroke-linejoin:miter;stroke-dasharray:none;stroke-opacity:1;marker-end:url(#marker5840)"
       d="M 42.59516,26.924148 H 28.043077"
       id="path5836"
       sodipodi:nodetypes="cc" />
    <path
       style="fill:none;stroke:#0000ff;stroke-width:0.176389;stroke-linecap:butt;stroke-linejoin:miter;stroke-dasharray:none;stroke-opacity:1;marker-end:url(#marker5840)"
       d="M 42.59516,26.924148 H 69.053494"
       id="path6022"
       sodipodi:nodetypes="cc" />
    <path
       style="fill:none;stroke:#000000;stroke-width:0.176389;stroke-linecap:butt;stroke-linejoin:miter;stroke-dasharray:none;stroke-opacity:1;marker-end:url(#marker5840)"
       d="M 42.59516,26.924148 55.692036,7.5261282"
       id="path6064"
       sodipodi:nodetypes="cc" />
    <path
       style="fill:none;stroke:#000000;stroke-width:0.176389;stroke-linecap:butt;stroke-linejoin:miter;stroke-dasharray:none;stroke-opacity:1;marker-start:url(#DistanceStart);marker-end:url(#DistanceEnd)"
       d="m 70.376411,45.444981 -43.656251,1e-6"
       id="path6465" />
    <text
       xml:space="preserve"
       style="font-size:3.52777px;line-height:1.25;font-family:Helvetica;-inkscape-font-specification:Helvetica;stroke-width:0.264583"
       x="60.138924"
       y="8.1971884"
       id="text11908"><tspan
         sodipodi:role="line"
         style="stroke-width:0.264583"
         x="60.138924"
         y="8.1971884"
         id="tspan12826" /></text>
    <g
       transform="matrix(0.352778,0,0,0.352778,46.778172,46.870463)"
       ns3:version="1.8.1"
       ns3:texconverter="pdflatex"
       ns3:pdfconverter="inkscape"
       ns3:text="$r_{12}$"
       ns3:preamble="/Users/jeremy/Library/Application Support/org.inkscape.Inkscape/config/inkscape/extensions/textext/default_packages.tex"
       ns3:scale="1.0"
       ns3:alignment="middle center"
       ns3:stroke-to-path="0"
       ns3:inkscapeversion="1.2.2"
       ns3:jacobian_sqrt="0.352778"
       id="g26689">
      <defs
         id="id-fb7fb243-8420-4d8a-b6ad-983ee476d914">
        <g
           id="id-f4b12958-f98e-4c8e-a280-006a92aba9bd">
          <g
             id="id-251ae909-7fd0-4262-9263-4925000cab23" />
          <g
             id="id-c39e8396-9289-4976-858a-315e1c0400bc">
            <path
               d="M 1.796875,-5.21875 0.6875,0 h 0.84375 l 0.578125,-2.71875 c 0.25,-1.203125 0.96875,-1.8125 2.0625,-1.78125 L 4.34375,-5.34375 C 4.21875,-5.359375 4.140625,-5.375 4.03125,-5.375 3.453125,-5.375 3,-5.109375 2.375,-4.40625 l 0.171875,-0.8125 z m 0,0"
               id="id-8453575a-f14d-433a-92e0-a7e2cfa48077" />
          </g>
          <g
             id="id-ebeaf8c1-f2be-4735-be84-666f7eab6c5b" />
          <g
             id="id-5c117e13-8b00-4cf4-a7aa-8ae6a461dd5a">
            <path
               d="M 1.8125,-3.515625 V 0 h 0.609375 v -4.9375 h -0.40625 c -0.21875,0.75 -0.359375,0.859375 -1.3125,0.984375 v 0.4375 z m 0,0"
               id="id-1116734d-4f55-4cd3-96c3-71f55746dda3" />
          </g>
          <g
             id="id-73294f50-3e70-4aa0-bbea-42becc9605a6">
            <path
               d="M 3.53125,-0.609375 H 0.921875 C 0.984375,-1.015625 1.21875,-1.265625 1.8125,-1.625 L 2.515625,-2 C 3.203125,-2.375 3.5625,-2.890625 3.5625,-3.484375 3.5625,-3.90625 3.390625,-4.28125 3.09375,-4.546875 2.8125,-4.8125 2.453125,-4.9375 1.984375,-4.9375 c -0.625,0 -1.09375,0.21875 -1.375,0.640625 -0.171875,0.265625 -0.25,0.5625 -0.265625,1.078125 h 0.625 C 0.984375,-3.5625 1.03125,-3.765625 1.109375,-3.921875 1.265625,-4.21875 1.59375,-4.40625 1.953125,-4.40625 2.515625,-4.40625 2.9375,-4 2.9375,-3.484375 2.9375,-3.09375 2.703125,-2.75 2.265625,-2.5 L 1.625,-2.140625 C 0.59375,-1.546875 0.296875,-1.09375 0.234375,0 H 3.53125 Z m 0,0"
               id="id-46520f48-ec6d-46c7-9667-91143e002b00" />
          </g>
        </g>
      </defs>
      <g
         fill="#000000"
         fill-opacity="1"
         id="id-4d9708f7-0f55-4fe8-9abd-0bd3ef17f406"
         transform="translate(-149.4,-129.39)">
        <g
           transform="translate(148.712,134.765)"
           id="g26679">
          <path
             d="M 1.796875,-5.21875 0.6875,0 h 0.84375 l 0.578125,-2.71875 c 0.25,-1.203125 0.96875,-1.8125 2.0625,-1.78125 L 4.34375,-5.34375 C 4.21875,-5.359375 4.140625,-5.375 4.03125,-5.375 3.453125,-5.375 3,-5.109375 2.375,-4.40625 l 0.171875,-0.8125 z m 0,0"
             id="id-64a5c1d4-e805-4fe1-9c50-bc89b814c263" />
        </g>
      </g>
      <g
         fill="#000000"
         fill-opacity="1"
         id="id-cb8440b4-84f9-462c-a9e2-8e7373933157"
         transform="translate(-149.4,-129.39)">
        <g
           transform="translate(152.03,136.259)"
           id="g26683">
          <path
             d="M 1.8125,-3.515625 V 0 h 0.609375 v -4.9375 h -0.40625 c -0.21875,0.75 -0.359375,0.859375 -1.3125,0.984375 v 0.4375 z m 0,0"
             id="id-486257e7-b259-4a01-a55b-7a0e7c295b75" />
        </g>
        <g
           transform="translate(155.907,136.259)"
           id="g26686">
          <path
             d="M 3.53125,-0.609375 H 0.921875 C 0.984375,-1.015625 1.21875,-1.265625 1.8125,-1.625 L 2.515625,-2 C 3.203125,-2.375 3.5625,-2.890625 3.5625,-3.484375 3.5625,-3.90625 3.390625,-4.28125 3.09375,-4.546875 2.8125,-4.8125 2.453125,-4.9375 1.984375,-4.9375 c -0.625,0 -1.09375,0.21875 -1.375,0.640625 -0.171875,0.265625 -0.25,0.5625 -0.265625,1.078125 h 0.625 C 0.984375,-3.5625 1.03125,-3.765625 1.109375,-3.921875 1.265625,-4.21875 1.59375,-4.40625 1.953125,-4.40625 2.515625,-4.40625 2.9375,-4 2.9375,-3.484375 2.9375,-3.09375 2.703125,-2.75 2.265625,-2.5 L 1.625,-2.140625 C 0.59375,-1.546875 0.296875,-1.09375 0.234375,0 H 3.53125 Z m 0,0"
             id="id-6c4cf9d1-3db1-4b58-ac53-81ec86ed0108" />
        </g>
      </g>
    </g>
    <g
       transform="matrix(0.352778,0,0,0.352778,84.409283,28.657559)"
       ns3:version="1.8.1"
       ns3:texconverter="pdflatex"
       ns3:pdfconverter="inkscape"
       ns3:text="$x$"
       ns3:preamble="/Users/jeremy/Library/Application Support/org.inkscape.Inkscape/config/inkscape/extensions/textext/default_packages.tex"
       ns3:scale="1.0"
       ns3:alignment="middle center"
       ns3:stroke-to-path="0"
       ns3:inkscapeversion="1.2.2"
       ns3:jacobian_sqrt="0.352778"
       id="g28285">
      <defs
         id="id-d743416e-5a8b-4c4f-a268-ca7bee714216">
        <g
           id="id-749dcecc-a651-4b4c-aa14-e3a43e4a0ff3">
          <g
             id="id-7d7382c4-a7b1-45a9-bd16-6d09cf2acdff" />
          <g
             id="id-bebb3858-75e9-4632-a69c-4b6b3704cdda">
            <path
               d="M 3.484375,-2.65625 5.8125,-5.21875 H 4.84375 L 3.1875,-3.3125 2.296875,-5.21875 H 1.375 L 2.546875,-2.65625 0.171875,0 h 0.96875 L 2.875,-2 3.78125,0 h 0.9375 z m 0,0"
               id="id-41e0fec2-bbcd-4ec9-bfd8-a74f755bbee8" />
          </g>
        </g>
      </defs>
      <g
         fill="#000000"
         fill-opacity="1"
         id="id-424fb6f8-c7db-492a-b02d-91528767a694"
         transform="translate(-148.884,-129.546)">
        <g
           transform="translate(148.712,134.765)"
           id="g28282">
          <path
             d="M 3.484375,-2.65625 5.8125,-5.21875 H 4.84375 L 3.1875,-3.3125 2.296875,-5.21875 H 1.375 L 2.546875,-2.65625 0.171875,0 h 0.96875 L 2.875,-2 3.78125,0 h 0.9375 z m 0,0"
             id="id-db6ba3b4-f883-4b7d-b134-4e293a58fad0" />
        </g>
      </g>
    </g>
    <g
       transform="matrix(0.352778,0,0,0.352778,39.014971,3.5527588)"
       ns3:version="1.8.1"
       ns3:texconverter="pdflatex"
       ns3:pdfconverter="inkscape"
       ns3:text="$y$"
       ns3:preamble="/Users/jeremy/Library/Application Support/org.inkscape.Inkscape/config/inkscape/extensions/textext/default_packages.tex"
       ns3:scale="1.0"
       ns3:alignment="middle center"
       ns3:stroke-to-path="0"
       ns3:inkscapeversion="1.2.2"
       ns3:jacobian_sqrt="0.352778"
       id="g29693">
      <defs
         id="id-513eb72a-024b-4933-85d5-60d6452a94ae">
        <g
           id="id-d56611bc-0911-4bec-a2d7-fff38007763a">
          <g
             id="id-fe467725-1b3d-4613-be6d-c96421f4dab4" />
          <g
             id="id-11c929e4-b186-42a7-90f9-3aaa3ddbfda0">
            <path
               d="M 5,-5.21875 2.671875,-1.171875 2.21875,-5.21875 H 1.3125 L 2,0.046875 1.46875,0.84375 C 1.203125,1.265625 1.046875,1.359375 0.671875,1.359375 c -0.09375,0 -0.15625,0 -0.4375,-0.03125 l -0.15625,0.75 c 0.1875,0.078125 0.296875,0.09375 0.484375,0.09375 0.71875,0 1.21875,-0.34375 1.65625,-1.078125 L 5.875,-5.21875 Z m 0,0"
               id="id-739a3334-7976-4ead-bbf9-1af69b16bc9c" />
          </g>
        </g>
      </defs>
      <g
         fill="#000000"
         fill-opacity="1"
         id="id-371d0d02-c9f1-490b-b873-8319779efc14"
         transform="translate(-148.79,-129.546)">
        <g
           transform="translate(148.712,134.765)"
           id="g29690">
          <path
             d="M 5,-5.21875 2.671875,-1.171875 2.21875,-5.21875 H 1.3125 L 2,0.046875 1.46875,0.84375 C 1.203125,1.265625 1.046875,1.359375 0.671875,1.359375 c -0.09375,0 -0.15625,0 -0.4375,-0.03125 l -0.15625,0.75 c 0.1875,0.078125 0.296875,0.09375 0.484375,0.09375 0.71875,0 1.21875,-0.34375 1.65625,-1.078125 L 5.875,-5.21875 Z m 0,0"
             id="id-33f9c990-ff0d-4dea-a073-31ade77bccc0" />
        </g>
      </g>
    </g>
    <path
       style="fill:none;stroke:#ff0000;stroke-width:0.176389;stroke-linecap:butt;stroke-linejoin:miter;stroke-dasharray:none;stroke-opacity:1;marker-start:url(#Dot);marker-end:url(#marker5840)"
       d="M 26.720159,26.924149 55.125965,6.9481052"
       id="path4435"
       sodipodi:nodetypes="cc" />
    <g
       transform="matrix(0.352778 0 0 0.352778 41.0599 27.7591)"
       ns3:version="1.8.1"
       ns3:texconverter="pdflatex"
       ns3:pdfconverter="inkscape"
       ns3:text="$O$"
       ns3:preamble="/Users/jeremy/Library/Application Support/org.inkscape.Inkscape/config/inkscape/extensions/textext/default_packages.tex"
       ns3:scale="1.0"
       ns3:alignment="middle center"
       ns3:stroke-to-path="0"
       ns3:inkscapeversion="1.2.2"
       ns3:jacobian_sqrt="0.352778"
       id="g32225">
      <defs
         id="id-c5b747c0-894d-4dd6-811a-5229b6e0462e">
        <g
           id="id-0e31bc22-b25d-41c8-a52e-544b19f43aa1">
          <g
             id="id-7f7f104b-6e14-4166-a3d2-9dc2c5226858" />
          <g
             id="id-c0f996e0-58c0-43df-8f8b-54e74e956ddc">
            <path
               d="m 5.359375,-7.390625 c -1.125,0 -2.09375,0.421875 -2.90625,1.265625 -0.890625,0.921875 -1.421875,2.234375 -1.421875,3.5 0,0.859375 0.28125,1.625 0.734375,2.09375 0.484375,0.46875 1.28125,0.765625 2.125,0.765625 0.9375,0 1.796875,-0.28125 2.4375,-0.765625 C 7.5,-1.4375 8.25,-3.046875 8.25,-4.625 c 0,-0.78125 -0.28125,-1.546875 -0.71875,-2 C 7.046875,-7.109375 6.265625,-7.390625 5.359375,-7.390625 Z m -0.125,0.8125 c 0.671875,0 1.3125,0.28125 1.65625,0.71875 0.265625,0.34375 0.40625,0.828125 0.40625,1.40625 0,0.921875 -0.3125,1.890625 -0.84375,2.609375 C 5.875,-1.03125 5,-0.578125 4.03125,-0.578125 3.375,-0.578125 2.75,-0.859375 2.40625,-1.296875 2.140625,-1.640625 2,-2.125 2,-2.703125 2,-3.625 2.296875,-4.578125 2.828125,-5.3125 3.40625,-6.109375 4.296875,-6.578125 5.234375,-6.578125 Z m 0,0"
               id="id-62655a3f-87d1-4f14-bf7d-fdb7e55d1e50" />
          </g>
        </g>
      </defs>
      <g
         fill="#000000"
         fill-opacity="1"
         id="id-98f86335-55bd-4cb9-b308-f13796dba031"
         transform="translate(-149.743, -127.374)">
        <g
           transform="translate(147.29048,128.85828)"
           ns3:version="1.8.1"
           ns3:texconverter="pdflatex"
           ns3:pdfconverter="inkscape"
           ns3:text="$G$"
           ns3:preamble="/Users/jeremy/Library/Application Support/org.inkscape.Inkscape/config/inkscape/extensions/textext/default_packages.tex"
           ns3:scale="1.0"
           ns3:alignment="middle center"
           ns3:stroke-to-path="0"
           ns3:inkscapeversion="1.2.2"
           ns3:jacobian_sqrt="1.0"
           id="g2225">
          <defs
             id="id-e565251e-7426-4d57-9920-9b5017b81689">
            <g
               id="id-a770bde7-085e-4024-a824-5d2a507f845b">
              <g
                 id="id-46d698d2-9c1c-4e52-b74a-1c09bc8ab764" />
              <g
                 id="id-da4872ed-4526-4c5f-82e3-4d8ec4a41c60">
                <path
                   d="M 7.90625,-3.84375 H 4.875 l -0.1875,0.828125 h 2.21875 l -0.0625,0.25 c -0.140625,0.65625 -0.4375,1.125 -0.9375,1.546875 -0.546875,0.4375 -1.125,0.640625 -1.8125,0.640625 -0.734375,0 -1.375,-0.28125 -1.6875,-0.734375 -0.21875,-0.359375 -0.359375,-0.875 -0.359375,-1.453125 0,-0.875 0.34375,-1.90625 0.875,-2.59375 0.609375,-0.796875 1.46875,-1.21875 2.4375,-1.21875 0.609375,0 1.09375,0.171875 1.421875,0.53125 0.265625,0.25 0.359375,0.53125 0.375,0.984375 H 8.0625 v -0.171875 c 0,-1.328125 -0.96875,-2.15625 -2.53125,-2.15625 -1.15625,0 -2.125,0.40625 -2.90625,1.1875 -0.953125,0.953125 -1.53125,2.3125 -1.53125,3.59375 0,0.9375 0.328125,1.796875 0.890625,2.25 0.453125,0.375 1.109375,0.59375 1.78125,0.59375 0.65625,0 1.34375,-0.1875 1.875,-0.5 0.234375,-0.140625 0.4375,-0.265625 0.8125,-0.59375 l 0.03125,0.90625 h 0.59375 z m 0,0"
                   id="id-f3f04545-b240-426e-b020-4ccc3e7520c7" />
              </g>
            </g>
          </defs>
          <g
             fill="#000000"
             fill-opacity="1"
             id="id-b850d3da-3cc8-4c12-a766-13404b4ce1f6"
             transform="translate(-149.806,-127.374)">
            <g
               transform="translate(148.712,134.765)"
               id="g2222">
              <path
                 d="M 7.90625,-3.84375 H 4.875 l -0.1875,0.828125 h 2.21875 l -0.0625,0.25 c -0.140625,0.65625 -0.4375,1.125 -0.9375,1.546875 -0.546875,0.4375 -1.125,0.640625 -1.8125,0.640625 -0.734375,0 -1.375,-0.28125 -1.6875,-0.734375 -0.21875,-0.359375 -0.359375,-0.875 -0.359375,-1.453125 0,-0.875 0.34375,-1.90625 0.875,-2.59375 0.609375,-0.796875 1.46875,-1.21875 2.4375,-1.21875 0.609375,0 1.09375,0.171875 1.421875,0.53125 0.265625,0.25 0.359375,0.53125 0.375,0.984375 H 8.0625 v -0.171875 c 0,-1.328125 -0.96875,-2.15625 -2.53125,-2.15625 -1.15625,0 -2.125,0.40625 -2.90625,1.1875 -0.953125,0.953125 -1.53125,2.3125 -1.53125,3.59375 0,0.9375 0.328125,1.796875 0.890625,2.25 0.453125,0.375 1.109375,0.59375 1.78125,0.59375 0.65625,0 1.34375,-0.1875 1.875,-0.5 0.234375,-0.140625 0.4375,-0.265625 0.8125,-0.59375 l 0.03125,0.90625 h 0.59375 z m 0,0"
                 id="id-7b175be2-32fd-4630-a0c3-918ddc8d46e9" />
            </g>
          </g>
        </g>
        <g
           transform="translate(150.77473,121.79566)"
           ns3:version="1.8.1"
           ns3:texconverter="pdflatex"
           ns3:pdfconverter="inkscape"
           ns3:text="$\\odot$"
           ns3:preamble="/Users/jeremy/Library/Application Support/org.inkscape.Inkscape/config/inkscape/extensions/textext/default_packages.tex"
           ns3:scale="1.0"
           ns3:alignment="middle center"
           ns3:stroke-to-path="0"
           ns3:inkscapeversion="1.2.2"
           ns3:jacobian_sqrt="1.0"
           id="g3845">
          <defs
             id="id-f5e6fd4a-ac64-4cc3-9a4a-856538bf219c">
            <g
               id="id-e4e8787e-b6c6-44b7-8cab-4ff95095462c">
              <g
                 id="id-ac90bc2a-96d2-43a1-b0ad-50aa4d8d55cd" />
              <g
                 id="id-5e508de3-e6f8-4385-a6fa-88a9bc59f2e0">
                <path
                   d="m 7.203125,-2.5 c 0,-1.828125 -1.5,-3.3125 -3.328125,-3.3125 -1.84375,0 -3.328125,1.5 -3.328125,3.3125 0,1.84375 1.5,3.328125 3.328125,3.328125 1.84375,0 3.328125,-1.5 3.328125,-3.328125 z M 3.875,0.578125 C 2.15625,0.578125 0.796875,-0.8125 0.796875,-2.5 c 0,-1.703125 1.390625,-3.0625 3.078125,-3.0625 1.703125,0 3.078125,1.390625 3.078125,3.0625 0,1.71875 -1.40625,3.078125 -3.078125,3.078125 z M 4.5625,-2.5 c 0,-0.375 -0.3125,-0.6875 -0.6875,-0.6875 -0.390625,0 -0.6875,0.34375 -0.6875,0.6875 0,0.390625 0.3125,0.703125 0.6875,0.703125 0.390625,0 0.6875,-0.34375 0.6875,-0.703125 z m 0,0"
                   id="id-38c8ce49-5959-4457-9f36-6e8b798243fa" />
              </g>
            </g>
          </defs>
          <g
             fill="#000000"
             fill-opacity="1"
             id="id-e9578aca-8454-4990-9b0d-2dbbe96689e4"
             transform="translate(-149.259,-128.952)">
            <g
               transform="translate(148.712,134.765)"
               id="g3842">
              <path
                 d="m 7.203125,-2.5 c 0,-1.828125 -1.5,-3.3125 -3.328125,-3.3125 -1.84375,0 -3.328125,1.5 -3.328125,3.3125 0,1.84375 1.5,3.328125 3.328125,3.328125 1.84375,0 3.328125,-1.5 3.328125,-3.328125 z M 3.875,0.578125 C 2.15625,0.578125 0.796875,-0.8125 0.796875,-2.5 c 0,-1.703125 1.390625,-3.0625 3.078125,-3.0625 1.703125,0 3.078125,1.390625 3.078125,3.0625 0,1.71875 -1.40625,3.078125 -3.078125,3.078125 z M 4.5625,-2.5 c 0,-0.375 -0.3125,-0.6875 -0.6875,-0.6875 -0.390625,0 -0.6875,0.34375 -0.6875,0.6875 0,0.390625 0.3125,0.703125 0.6875,0.703125 0.390625,0 0.6875,-0.34375 0.6875,-0.703125 z m 0,0"
                 id="id-e7f209c4-b35d-43a5-87ba-78e83905a1cb" />
            </g>
          </g>
        </g>
        <g
           transform="translate(146.49386,117.31154)"
           ns3:version="1.8.1"
           ns3:texconverter="pdflatex"
           ns3:pdfconverter="inkscape"
           ns3:text="$z$"
           ns3:preamble="/Users/jeremy/Library/Application Support/org.inkscape.Inkscape/config/inkscape/extensions/textext/default_packages.tex"
           ns3:scale="1.0"
           ns3:alignment="middle center"
           ns3:stroke-to-path="0"
           ns3:inkscapeversion="1.2.2"
           ns3:jacobian_sqrt="1.0"
           id="g5114">
          <defs
             id="id-2c9234e6-858b-458e-8e7e-09e5cfd6f4e2">
            <g
               id="id-627f65a7-3c3f-4e2c-9554-2131982493c6">
              <g
                 id="id-255c7f59-e94d-47be-b9da-dc5513ca775b" />
              <g
                 id="id-0286d56a-3c51-4e5c-aef5-3546a4c41ceb">
                <path
                   d="M 5.546875,-5.21875 H 1.640625 L 1.5,-4.5 H 4.421875 L 0.484375,-0.734375 0.3125,0 h 4.25 l 0.15625,-0.71875 h -3.25 l 3.90625,-3.75 z m 0,0"
                   id="id-5d9b2a10-16cf-4787-8592-9554cdb55933" />
              </g>
            </g>
          </defs>
          <g
             fill="#000000"
             fill-opacity="1"
             id="id-fa126017-3ce2-47f6-af84-c147805306e8"
             transform="translate(-149.025,-129.546)">
            <g
               transform="translate(148.712,134.765)"
               id="g5111">
              <path
                 d="M 5.546875,-5.21875 H 1.640625 L 1.5,-4.5 H 4.421875 L 0.484375,-0.734375 0.3125,0 h 4.25 l 0.15625,-0.71875 h -3.25 l 3.90625,-3.75 z m 0,0"
                 id="id-21565244-6c5a-4c37-8ed2-6c590e9a198a" />
            </g>
          </g>
        </g>
      </g>
    </g>
    <circle
       style="fill:#000000;fill-opacity:0.989761;stroke:none;stroke-width:0.176389;stroke-linecap:round;stroke-linejoin:round;stroke-miterlimit:1;paint-order:stroke fill markers"
       id="path936"
       cx="56.353493"
       cy="6.2866483"
       r="0.66145831" />
    <g
       transform="matrix(0.352778,0,0,0.352778,51.857076,1.4305019)"
       ns3:version="1.8.1"
       ns3:texconverter="pdflatex"
       ns3:pdfconverter="inkscape"
       ns3:text="$m,\\va*r(x,\\!y)$"
       ns3:preamble="/Users/jeremy/Library/Application Support/org.inkscape.Inkscape/config/inkscape/extensions/textext/default_packages.tex"
       ns3:scale="1.0"
       ns3:alignment="middle center"
       ns3:stroke-to-path="0"
       ns3:inkscapeversion="1.2.2"
       ns3:jacobian_sqrt="0.352778"
       id="g16008">
      <defs
         id="id-44fa1405-0c3f-4ce4-8d77-8296312e03de">
        <g
           id="id-ce674e8c-1b05-4408-80d6-4531ec104167">
          <g
             id="id-1780f978-2ecd-4ba5-a796-3bd4e4bb9e52" />
          <g
             id="id-e9bc35ec-6c75-4aa6-a954-4b275847c07e">
            <path
               d="M 1.8125,-5.21875 0.703125,0 h 0.84375 L 2.25,-3.28125 c 0.15625,-0.75 0.828125,-1.375 1.5,-1.375 0.484375,0 0.8125,0.28125 0.8125,0.6875 0,0.109375 0,0.234375 -0.03125,0.375 L 3.765625,0 H 4.59375 l 0.703125,-3.28125 c 0.15625,-0.78125 0.84375,-1.375 1.5625,-1.375 0.46875,0 0.75,0.296875 0.75,0.765625 0,0.15625 0,0.15625 -0.078125,0.484375 L 6.8125,0 H 7.640625 L 8.4375,-3.71875 C 8.46875,-3.828125 8.5,-4.15625 8.5,-4.265625 8.5,-4.53125 8.375,-4.8125 8.171875,-5.03125 7.953125,-5.28125 7.6875,-5.375 7.234375,-5.375 c -0.65625,0 -1.21875,0.265625 -1.8125,0.828125 C 5.265625,-5.109375 4.875,-5.375 4.21875,-5.375 c -0.6875,0 -1.140625,0.203125 -1.78125,0.796875 L 2.578125,-5.21875 Z m 0,0"
               id="id-d23a9232-d6ce-4013-9fe9-8f04649be9a4" />
          </g>
          <g
             id="id-1e42c9d3-f0d2-43fa-82d1-f199fb36dabf">
            <path
               d="M 3.484375,-2.65625 5.8125,-5.21875 H 4.84375 L 3.1875,-3.3125 2.296875,-5.21875 H 1.375 L 2.546875,-2.65625 0.171875,0 h 0.96875 L 2.875,-2 3.78125,0 h 0.9375 z m 0,0"
               id="id-38839704-aba4-47dd-9b38-16ba4f9e3550" />
          </g>
          <g
             id="id-66b76d51-f4d6-4d6f-86b1-604a6d97a0e7">
            <path
               d="M 5,-5.21875 2.671875,-1.171875 2.21875,-5.21875 H 1.3125 L 2,0.046875 1.46875,0.84375 C 1.203125,1.265625 1.046875,1.359375 0.671875,1.359375 c -0.09375,0 -0.15625,0 -0.4375,-0.03125 l -0.15625,0.75 c 0.1875,0.078125 0.296875,0.09375 0.484375,0.09375 0.71875,0 1.21875,-0.34375 1.65625,-1.078125 L 5.875,-5.21875 Z m 0,0"
               id="id-a283087a-a154-4311-9e47-b5f12bb9be3b" />
          </g>
          <g
             id="id-2b42a53c-2806-44cf-b471-275587db554c" />
          <g
             id="id-0e235a2b-610a-40e8-acee-3d065565e82a">
            <path
               d="M 0.875,-1.03125 V 0 H 1.46875 V 0.171875 C 1.46875,0.875 1.328125,1.0625 0.875,1.09375 v 0.375 c 0.6875,0 1.03125,-0.453125 1.03125,-1.3125 v -1.1875 z m 0,0"
               id="id-d0a40f44-b278-458a-ac0a-7ec58778648f" />
          </g>
          <g
             id="id-85aefb75-16fd-4794-a93f-7c536383b7e0">
            <path
               d="m 2.359375,-7.265625 c -1,1.296875 -1.625,3.125 -1.625,4.6875 0,1.578125 0.625,3.390625 1.625,4.6875 H 2.90625 c -0.875,-1.421875 -1.375,-3.09375 -1.375,-4.6875 0,-1.59375 0.5,-3.28125 1.375,-4.6875 z m 0,0"
               id="id-1b1ce1ae-eebd-403f-b1ac-903a0a715d8a" />
          </g>
          <g
             id="id-fb7eee62-0cc4-434a-b67a-8dac7fcab4ef">
            <path
               d="m 0.921875,2.109375 c 1,-1.296875 1.625,-3.109375 1.625,-4.6875 0,-1.5625 -0.625,-3.390625 -1.625,-4.6875 H 0.375 c 0.875,1.421875 1.375,3.09375 1.375,4.6875 0,1.59375 -0.5,3.28125 -1.375,4.6875 z m 0,0"
               id="id-9130ba30-1844-4c58-9bbc-304e9316a5c6" />
          </g>
          <g
             id="id-a3f1f244-fcce-4e89-a077-59d7d4617981" />
          <g
             id="id-f2c9c857-80e3-4f7a-861d-c8651c7d7be9">
            <path
               d="m 5.359375,-5.9375 c -0.140625,0.140625 -0.46875,0.421875 -0.46875,0.59375 0,0.09375 0.09375,0.203125 0.1875,0.203125 0.09375,0 0.140625,-0.078125 0.203125,-0.140625 C 5.390625,-5.421875 5.625,-5.703125 6.0625,-5.921875 6.125,-5.96875 6.234375,-6.015625 6.234375,-6.125 6.234375,-6.234375 6.15625,-6.28125 6.09375,-6.328125 5.875,-6.484375 5.765625,-6.65625 5.6875,-6.890625 5.65625,-6.984375 5.625,-7.125 5.484375,-7.125 c -0.140625,0 -0.203125,0.140625 -0.203125,0.21875 0,0.046875 0.078125,0.359375 0.234375,0.578125 H 2.15625 c -0.15625,0 -0.34375,0 -0.34375,0.203125 0,0.1875 0.1875,0.1875 0.34375,0.1875 z m 0,0"
               id="id-4c665873-4756-4a4b-8f86-5154390677f1" />
          </g>
          <g
             id="id-fbc810ad-eab2-4a39-9468-45c6a07bcdc4" />
          <g
             id="id-b3ac3627-9c11-4dda-a509-ef589280310d">
            <path
               d="M 1.78125,-5.390625 0.625,0 H 2.03125 L 2.625,-2.859375 c 0.171875,-0.8125 0.6875,-1.234375 1.5,-1.234375 0.15625,0 0.25,0.015625 0.4375,0.046875 L 4.859375,-5.46875 c -0.078125,0 -0.140625,0 -0.171875,0 -0.640625,0 -1.28125,0.421875 -1.75,1.140625 l 0.234375,-1.0625 z m 0,0"
               id="id-7bbff840-294d-4f00-80d7-f4a2af2fed38" />
          </g>
        </g>
      </defs>
      <g
         fill="#000000"
         fill-opacity="1"
         id="id-d39c58c0-9555-408d-9507-a017812bdb27"
         transform="translate(-149.415,-126.49)">
        <g
           transform="translate(148.712,134.765)"
           id="g4633">
          <path
             d="M 1.8125,-5.21875 0.703125,0 h 0.84375 L 2.25,-3.28125 c 0.15625,-0.75 0.828125,-1.375 1.5,-1.375 0.484375,0 0.8125,0.28125 0.8125,0.6875 0,0.109375 0,0.234375 -0.03125,0.375 L 3.765625,0 H 4.59375 l 0.703125,-3.28125 c 0.15625,-0.78125 0.84375,-1.375 1.5625,-1.375 0.46875,0 0.75,0.296875 0.75,0.765625 0,0.15625 0,0.15625 -0.078125,0.484375 L 6.8125,0 H 7.640625 L 8.4375,-3.71875 C 8.46875,-3.828125 8.5,-4.15625 8.5,-4.265625 8.5,-4.53125 8.375,-4.8125 8.171875,-5.03125 7.953125,-5.28125 7.6875,-5.375 7.234375,-5.375 c -0.65625,0 -1.21875,0.265625 -1.8125,0.828125 C 5.265625,-5.109375 4.875,-5.375 4.21875,-5.375 c -0.6875,0 -1.140625,0.203125 -1.78125,0.796875 L 2.578125,-5.21875 Z m 0,0"
             id="id-db195907-d552-4625-8506-ab96b5793449" />
        </g>
      </g>
      <g
         fill="#000000"
         fill-opacity="1"
         id="id-673895e9-34f5-4088-93fd-184ca45ff2b3"
         transform="translate(-149.415,-126.49)">
        <g
           transform="translate(157.205,134.765)"
           id="g4637">
          <path
             d="M 0.875,-1.03125 V 0 H 1.46875 V 0.171875 C 1.46875,0.875 1.328125,1.0625 0.875,1.09375 v 0.375 c 0.6875,0 1.03125,-0.453125 1.03125,-1.3125 v -1.1875 z m 0,0"
             id="id-3891ac15-d386-4d56-91ad-c89d360a7b1a" />
        </g>
      </g>
      <g
         fill="#000000"
         fill-opacity="1"
         id="id-341f4b2b-911c-4628-832c-96de1cafcc07"
         transform="translate(-149.415,-126.49)">
        <g
           transform="translate(160.814,133.615)"
           id="g4641">
          <path
             d="m 5.359375,-5.9375 c -0.140625,0.140625 -0.46875,0.421875 -0.46875,0.59375 0,0.09375 0.09375,0.203125 0.1875,0.203125 0.09375,0 0.140625,-0.078125 0.203125,-0.140625 C 5.390625,-5.421875 5.625,-5.703125 6.0625,-5.921875 6.125,-5.96875 6.234375,-6.015625 6.234375,-6.125 6.234375,-6.234375 6.15625,-6.28125 6.09375,-6.328125 5.875,-6.484375 5.765625,-6.65625 5.6875,-6.890625 5.65625,-6.984375 5.625,-7.125 5.484375,-7.125 c -0.140625,0 -0.203125,0.140625 -0.203125,0.21875 0,0.046875 0.078125,0.359375 0.234375,0.578125 H 2.15625 c -0.15625,0 -0.34375,0 -0.34375,0.203125 0,0.1875 0.1875,0.1875 0.34375,0.1875 z m 0,0"
             id="id-79474be1-a816-4299-9aad-b1ddbd899c52" />
        </g>
      </g>
      <g
         fill="#000000"
         fill-opacity="1"
         id="id-a8228b38-80e9-4229-bc6a-676d161e305e"
         transform="translate(-149.415,-126.49)">
        <g
           transform="translate(161.635,134.765)"
           id="g4645">
          <path
             d="M 1.78125,-5.390625 0.625,0 H 2.03125 L 2.625,-2.859375 c 0.171875,-0.8125 0.6875,-1.234375 1.5,-1.234375 0.15625,0 0.25,0.015625 0.4375,0.046875 L 4.859375,-5.46875 c -0.078125,0 -0.140625,0 -0.171875,0 -0.640625,0 -1.28125,0.421875 -1.75,1.140625 l 0.234375,-1.0625 z m 0,0"
             id="id-d38128bd-7f26-44de-af50-c29aad3f1844" />
        </g>
      </g>
      <g
         fill="#000000"
         fill-opacity="1"
         id="id-bb638780-9da5-4eb5-aac2-3085c96c690c"
         transform="translate(-149.415,-126.49)">
        <g
           transform="translate(166.507,134.765)"
           id="g4649">
          <path
             d="m 2.359375,-7.265625 c -1,1.296875 -1.625,3.125 -1.625,4.6875 0,1.578125 0.625,3.390625 1.625,4.6875 H 2.90625 c -0.875,-1.421875 -1.375,-3.09375 -1.375,-4.6875 0,-1.59375 0.5,-3.28125 1.375,-4.6875 z m 0,0"
             id="id-98c4cb17-63a8-40ac-b7fb-d9590f6538c7" />
        </g>
      </g>
      <g
         fill="#000000"
         fill-opacity="1"
         id="id-5089d56d-47c0-40b9-819f-e477db33eca4"
         transform="translate(-149.415,-126.49)">
        <g
           transform="translate(169.824,134.765)"
           id="g4653">
          <path
             d="M 3.484375,-2.65625 5.8125,-5.21875 H 4.84375 L 3.1875,-3.3125 2.296875,-5.21875 H 1.375 L 2.546875,-2.65625 0.171875,0 h 0.96875 L 2.875,-2 3.78125,0 h 0.9375 z m 0,0"
             id="id-e7ba67e5-4331-477c-bfdd-d5715ba4f555" />
        </g>
      </g>
      <g
         fill="#000000"
         fill-opacity="1"
         id="id-f8d80876-921d-42f1-a96d-e6124c7c67e5"
         transform="translate(-149.415,-126.49)">
        <g
           transform="translate(175.742,134.765)"
           id="g4657">
          <path
             d="M 0.875,-1.03125 V 0 H 1.46875 V 0.171875 C 1.46875,0.875 1.328125,1.0625 0.875,1.09375 v 0.375 c 0.6875,0 1.03125,-0.453125 1.03125,-1.3125 v -1.1875 z m 0,0"
             id="id-cfe34f02-b1e3-420d-abf9-f8ac295eb8e3" />
        </g>
      </g>
      <g
         fill="#000000"
         fill-opacity="1"
         id="id-9c187471-7b55-4723-b416-23c5f2c60557"
         transform="translate(-149.415,-126.49)">
        <g
           transform="translate(178.512,134.765)"
           id="g4661">
          <path
             d="M 5,-5.21875 2.671875,-1.171875 2.21875,-5.21875 H 1.3125 L 2,0.046875 1.46875,0.84375 C 1.203125,1.265625 1.046875,1.359375 0.671875,1.359375 c -0.09375,0 -0.15625,0 -0.4375,-0.03125 l -0.15625,0.75 c 0.1875,0.078125 0.296875,0.09375 0.484375,0.09375 0.71875,0 1.21875,-0.34375 1.65625,-1.078125 L 5.875,-5.21875 Z m 0,0"
             id="id-18518485-d0d5-4c28-9c1c-a6d45cad24ef" />
        </g>
      </g>
      <g
         fill="#000000"
         fill-opacity="1"
         id="id-fc575a31-6190-4758-b6d8-8fe56511da44"
         transform="translate(-149.415,-126.49)">
        <g
           transform="translate(184.489,134.765)"
           id="g4665">
          <path
             d="m 0.921875,2.109375 c 1,-1.296875 1.625,-3.109375 1.625,-4.6875 0,-1.5625 -0.625,-3.390625 -1.625,-4.6875 H 0.375 c 0.875,1.421875 1.375,3.09375 1.375,4.6875 0,1.59375 -0.5,3.28125 -1.375,4.6875 z m 0,0"
             id="id-68671e9a-7c9e-488e-8ddc-030f7d006fe4" />
        </g>
      </g>
    </g>
    <g
       transform="matrix(0.352778,0,0,0.352778,19.39596,27.778432)"
       ns3:version="1.8.1"
       ns3:texconverter="pdflatex"
       ns3:pdfconverter="inkscape"
       ns3:text="$m_1,\\va*R_1(x_1,\\!y_1)$"
       ns3:preamble="/Users/jeremy/Library/Application Support/org.inkscape.Inkscape/config/inkscape/extensions/textext/default_packages.tex"
       ns3:scale="1.0"
       ns3:alignment="middle center"
       ns3:stroke-to-path="0"
       ns3:inkscapeversion="1.2.2"
       ns3:jacobian_sqrt="0.352778"
       id="g33642"
       style="fill:#ff0000">
      <defs
         id="id-0362e5a1-41e0-4437-acca-4e9afefa2166">
        <g
           id="id-4f248e42-cbf4-4d11-84d6-69151c39651b">
          <g
             id="id-3b3e1f3c-f6cc-4386-ac5f-a2acaf0ea894" />
          <g
             id="id-657338be-e5e2-4c9a-aa9a-6a043462f9fe">
            <path
               d="M 1.8125,-5.21875 0.703125,0 h 0.84375 L 2.25,-3.28125 c 0.15625,-0.75 0.828125,-1.375 1.5,-1.375 0.484375,0 0.8125,0.28125 0.8125,0.6875 0,0.109375 0,0.234375 -0.03125,0.375 L 3.765625,0 H 4.59375 l 0.703125,-3.28125 c 0.15625,-0.78125 0.84375,-1.375 1.5625,-1.375 0.46875,0 0.75,0.296875 0.75,0.765625 0,0.15625 0,0.15625 -0.078125,0.484375 L 6.8125,0 H 7.640625 L 8.4375,-3.71875 C 8.46875,-3.828125 8.5,-4.15625 8.5,-4.265625 8.5,-4.53125 8.375,-4.8125 8.171875,-5.03125 7.953125,-5.28125 7.6875,-5.375 7.234375,-5.375 c -0.65625,0 -1.21875,0.265625 -1.8125,0.828125 C 5.265625,-5.109375 4.875,-5.375 4.21875,-5.375 c -0.6875,0 -1.140625,0.203125 -1.78125,0.796875 L 2.578125,-5.21875 Z m 0,0"
               id="id-da62d472-e1c5-47e1-ac0f-b8c4b708684e" />
          </g>
          <g
             id="id-134f1b92-b33d-4be6-a88f-be45c869f343">
            <path
               d="M 3.484375,-2.65625 5.8125,-5.21875 H 4.84375 L 3.1875,-3.3125 2.296875,-5.21875 H 1.375 L 2.546875,-2.65625 0.171875,0 h 0.96875 L 2.875,-2 3.78125,0 h 0.9375 z m 0,0"
               id="id-0f5ad2ba-40b0-4089-a001-3d3a17e68c6f" />
          </g>
          <g
             id="id-8aebbd0e-7549-4336-8b09-a988aeff2c5f">
            <path
               d="M 5,-5.21875 2.671875,-1.171875 2.21875,-5.21875 H 1.3125 L 2,0.046875 1.46875,0.84375 C 1.203125,1.265625 1.046875,1.359375 0.671875,1.359375 c -0.09375,0 -0.15625,0 -0.4375,-0.03125 l -0.15625,0.75 c 0.1875,0.078125 0.296875,0.09375 0.484375,0.09375 0.71875,0 1.21875,-0.34375 1.65625,-1.078125 L 5.875,-5.21875 Z m 0,0"
               id="id-7d7ade70-6a7b-48ba-8dd8-c310f9e94bef" />
          </g>
          <g
             id="id-4cb3269e-7dc6-41b6-a345-9d38d3be6ea4" />
          <g
             id="id-79425692-030d-46f1-b981-56014ef82a67">
            <path
               d="M 1.8125,-3.515625 V 0 h 0.609375 v -4.9375 h -0.40625 c -0.21875,0.75 -0.359375,0.859375 -1.3125,0.984375 v 0.4375 z m 0,0"
               id="id-6aefc018-0531-4fef-8429-e09a45ef48d3" />
          </g>
          <g
             id="id-c8bf2582-4bb1-478d-9a21-28819969e6cf" />
          <g
             id="id-b0739b11-0c77-4c6a-ae5a-98af805a61ba">
            <path
               d="M 0.875,-1.03125 V 0 H 1.46875 V 0.171875 C 1.46875,0.875 1.328125,1.0625 0.875,1.09375 v 0.375 c 0.6875,0 1.03125,-0.453125 1.03125,-1.3125 v -1.1875 z m 0,0"
               id="id-9f4c4f20-c853-46cb-b96b-4a7598b2a5e5" />
          </g>
          <g
             id="id-b8366783-f647-419f-9889-c10f7d45f7ed">
            <path
               d="m 2.359375,-7.265625 c -1,1.296875 -1.625,3.125 -1.625,4.6875 0,1.578125 0.625,3.390625 1.625,4.6875 H 2.90625 c -0.875,-1.421875 -1.375,-3.09375 -1.375,-4.6875 0,-1.59375 0.5,-3.28125 1.375,-4.6875 z m 0,0"
               id="id-40436bf6-7771-4954-b194-f5807a1c54ae" />
          </g>
          <g
             id="id-4565d4e0-95aa-482a-8399-a3a6bdb895e7">
            <path
               d="m 0.921875,2.109375 c 1,-1.296875 1.625,-3.109375 1.625,-4.6875 0,-1.5625 -0.625,-3.390625 -1.625,-4.6875 H 0.375 c 0.875,1.421875 1.375,3.09375 1.375,4.6875 0,1.59375 -0.5,3.28125 -1.375,4.6875 z m 0,0"
               id="id-14b6c4e6-2619-4a15-b16a-c4537acc5e29" />
          </g>
          <g
             id="id-e1c2315d-0312-47cd-abd3-ee9a0f447b66" />
          <g
             id="id-bd58e8cb-1445-45ef-9b44-c483ce75e35f">
            <path
               d="m 5.359375,-5.9375 c -0.140625,0.140625 -0.46875,0.421875 -0.46875,0.59375 0,0.09375 0.09375,0.203125 0.1875,0.203125 0.09375,0 0.140625,-0.078125 0.203125,-0.140625 C 5.390625,-5.421875 5.625,-5.703125 6.0625,-5.921875 6.125,-5.96875 6.234375,-6.015625 6.234375,-6.125 6.234375,-6.234375 6.15625,-6.28125 6.09375,-6.328125 5.875,-6.484375 5.765625,-6.65625 5.6875,-6.890625 5.65625,-6.984375 5.625,-7.125 5.484375,-7.125 c -0.140625,0 -0.203125,0.140625 -0.203125,0.21875 0,0.046875 0.078125,0.359375 0.234375,0.578125 H 2.15625 c -0.15625,0 -0.34375,0 -0.34375,0.203125 0,0.1875 0.1875,0.1875 0.34375,0.1875 z m 0,0"
               id="id-2d141555-403a-45e3-91fe-04391e4adf47" />
          </g>
          <g
             id="id-48971006-88a0-4993-89c4-70deb416edf5" />
          <g
             id="id-dc40f032-e3f8-4f71-83e4-1350492cd75b">
            <path
               d="m 2.90625,-2.875 h 1.703125 c 0.578125,0 0.859375,0.171875 0.859375,0.546875 0,0.109375 -0.03125,0.25 -0.125,0.609375 -0.1875,0.6875 -0.265625,1.046875 -0.265625,1.3125 0,0.109375 0.03125,0.21875 0.078125,0.40625 H 6.75 L 6.8125,-0.265625 C 6.671875,-0.375 6.625,-0.46875 6.625,-0.609375 c 0,-0.0625 0.015625,-0.15625 0.03125,-0.265625 0.234375,-1.21875 0.28125,-1.5625 0.28125,-1.8125 0,-0.390625 -0.265625,-0.65625 -0.78125,-0.828125 0.53125,-0.25 0.796875,-0.421875 1.03125,-0.671875 0.390625,-0.390625 0.640625,-1.03125 0.640625,-1.578125 0,-0.390625 -0.15625,-0.78125 -0.4375,-1.046875 -0.3125,-0.3125 -0.71875,-0.453125 -1.296875,-0.453125 h -3.75 L 0.796875,0 h 1.5 z M 3.171875,-4.125 3.5625,-6.015625 H 5.25 c 0.453125,0 0.6875,0.046875 0.875,0.203125 0.140625,0.125 0.21875,0.296875 0.21875,0.484375 0,0.28125 -0.125,0.59375 -0.296875,0.796875 C 5.78125,-4.25 5.46875,-4.125 4.96875,-4.125 Z m 0,0"
               id="id-2385d808-bf27-4b37-b557-4e4305b1e5a7" />
          </g>
        </g>
      </defs>
      <g
         fill="#000000"
         fill-opacity="1"
         id="id-a902938d-7c5b-4510-bbee-dcf5e1578adf"
         transform="translate(-149.415,-124.796)"
         style="fill:#ff0000">
        <g
           transform="translate(148.712,134.765)"
           id="g1434"
           style="fill:#ff0000">
          <path
             d="M 1.8125,-5.21875 0.703125,0 h 0.84375 L 2.25,-3.28125 c 0.15625,-0.75 0.828125,-1.375 1.5,-1.375 0.484375,0 0.8125,0.28125 0.8125,0.6875 0,0.109375 0,0.234375 -0.03125,0.375 L 3.765625,0 H 4.59375 l 0.703125,-3.28125 c 0.15625,-0.78125 0.84375,-1.375 1.5625,-1.375 0.46875,0 0.75,0.296875 0.75,0.765625 0,0.15625 0,0.15625 -0.078125,0.484375 L 6.8125,0 H 7.640625 L 8.4375,-3.71875 C 8.46875,-3.828125 8.5,-4.15625 8.5,-4.265625 8.5,-4.53125 8.375,-4.8125 8.171875,-5.03125 7.953125,-5.28125 7.6875,-5.375 7.234375,-5.375 c -0.65625,0 -1.21875,0.265625 -1.8125,0.828125 C 5.265625,-5.109375 4.875,-5.375 4.21875,-5.375 c -0.6875,0 -1.140625,0.203125 -1.78125,0.796875 L 2.578125,-5.21875 Z m 0,0"
             id="id-fe82af66-eb11-48ca-bc43-cd071f142aae"
             style="fill:#ff0000" />
        </g>
      </g>
      <g
         fill="#000000"
         fill-opacity="1"
         id="id-68272db4-a435-4cfb-a379-e30dcb7445c3"
         transform="translate(-149.415,-124.796)"
         style="fill:#ff0000">
        <g
           transform="translate(157.011,136.259)"
           id="g1438"
           style="fill:#ff0000">
          <path
             d="M 1.8125,-3.515625 V 0 h 0.609375 v -4.9375 h -0.40625 c -0.21875,0.75 -0.359375,0.859375 -1.3125,0.984375 v 0.4375 z m 0,0"
             id="id-ae70befc-6879-46b3-b18c-104d3906b66e"
             style="fill:#ff0000" />
        </g>
      </g>
      <g
         fill="#000000"
         fill-opacity="1"
         id="id-69180454-3f1e-49d4-b52b-cd23567b3971"
         transform="translate(-149.415,-124.796)"
         style="fill:#ff0000">
        <g
           transform="translate(161.387,134.765)"
           id="g1442"
           style="fill:#ff0000">
          <path
             d="M 0.875,-1.03125 V 0 H 1.46875 V 0.171875 C 1.46875,0.875 1.328125,1.0625 0.875,1.09375 v 0.375 c 0.6875,0 1.03125,-0.453125 1.03125,-1.3125 v -1.1875 z m 0,0"
             id="id-2355686e-aa2f-4fb8-b8d0-5d880716ce80"
             style="fill:#ff0000" />
        </g>
      </g>
      <g
         fill="#000000"
         fill-opacity="1"
         id="id-8dad8e13-0e1e-4ecd-8a8d-9100bece4d51"
         transform="translate(-149.415,-124.796)"
         style="fill:#ff0000">
        <g
           transform="translate(166.435,131.921)"
           id="g1446"
           style="fill:#ff0000">
          <path
             d="m 5.359375,-5.9375 c -0.140625,0.140625 -0.46875,0.421875 -0.46875,0.59375 0,0.09375 0.09375,0.203125 0.1875,0.203125 0.09375,0 0.140625,-0.078125 0.203125,-0.140625 C 5.390625,-5.421875 5.625,-5.703125 6.0625,-5.921875 6.125,-5.96875 6.234375,-6.015625 6.234375,-6.125 6.234375,-6.234375 6.15625,-6.28125 6.09375,-6.328125 5.875,-6.484375 5.765625,-6.65625 5.6875,-6.890625 5.65625,-6.984375 5.625,-7.125 5.484375,-7.125 c -0.140625,0 -0.203125,0.140625 -0.203125,0.21875 0,0.046875 0.078125,0.359375 0.234375,0.578125 H 2.15625 c -0.15625,0 -0.34375,0 -0.34375,0.203125 0,0.1875 0.1875,0.1875 0.34375,0.1875 z m 0,0"
             id="id-9553a8e8-5712-4604-ac87-dd71ef5590e0"
             style="fill:#ff0000" />
        </g>
      </g>
      <g
         fill="#000000"
         fill-opacity="1"
         id="id-4b664b5f-4744-42f9-98dc-78d2b9a55626"
         transform="translate(-149.415,-124.796)"
         style="fill:#ff0000">
        <g
           transform="translate(165.817,134.765)"
           id="g1450"
           style="fill:#ff0000">
          <path
             d="m 2.90625,-2.875 h 1.703125 c 0.578125,0 0.859375,0.171875 0.859375,0.546875 0,0.109375 -0.03125,0.25 -0.125,0.609375 -0.1875,0.6875 -0.265625,1.046875 -0.265625,1.3125 0,0.109375 0.03125,0.21875 0.078125,0.40625 H 6.75 L 6.8125,-0.265625 C 6.671875,-0.375 6.625,-0.46875 6.625,-0.609375 c 0,-0.0625 0.015625,-0.15625 0.03125,-0.265625 0.234375,-1.21875 0.28125,-1.5625 0.28125,-1.8125 0,-0.390625 -0.265625,-0.65625 -0.78125,-0.828125 0.53125,-0.25 0.796875,-0.421875 1.03125,-0.671875 0.390625,-0.390625 0.640625,-1.03125 0.640625,-1.578125 0,-0.390625 -0.15625,-0.78125 -0.4375,-1.046875 -0.3125,-0.3125 -0.71875,-0.453125 -1.296875,-0.453125 h -3.75 L 0.796875,0 h 1.5 z M 3.171875,-4.125 3.5625,-6.015625 H 5.25 c 0.453125,0 0.6875,0.046875 0.875,0.203125 0.140625,0.125 0.21875,0.296875 0.21875,0.484375 0,0.28125 -0.125,0.59375 -0.296875,0.796875 C 5.78125,-4.25 5.46875,-4.125 4.96875,-4.125 Z m 0,0"
             id="id-d8270384-0a3f-4cc6-8bb4-3b0bc9cd7411"
             style="fill:#ff0000" />
        </g>
      </g>
      <g
         fill="#000000"
         fill-opacity="1"
         id="id-4415b363-bf9b-4fdb-ac79-e74c755e93d3"
         transform="translate(-149.415,-124.796)"
         style="fill:#ff0000">
        <g
           transform="translate(173.567,136.259)"
           id="g1454"
           style="fill:#ff0000">
          <path
             d="M 1.8125,-3.515625 V 0 h 0.609375 v -4.9375 h -0.40625 c -0.21875,0.75 -0.359375,0.859375 -1.3125,0.984375 v 0.4375 z m 0,0"
             id="id-a2e6e5c0-144e-47bb-aa53-7ba9570ae33f"
             style="fill:#ff0000" />
        </g>
      </g>
      <g
         fill="#000000"
         fill-opacity="1"
         id="id-9f989284-5911-4584-9639-cb6730a699b7"
         transform="translate(-149.415,-124.796)"
         style="fill:#ff0000">
        <g
           transform="translate(177.943,134.765)"
           id="g1458"
           style="fill:#ff0000">
          <path
             d="m 2.359375,-7.265625 c -1,1.296875 -1.625,3.125 -1.625,4.6875 0,1.578125 0.625,3.390625 1.625,4.6875 H 2.90625 c -0.875,-1.421875 -1.375,-3.09375 -1.375,-4.6875 0,-1.59375 0.5,-3.28125 1.375,-4.6875 z m 0,0"
             id="id-6cc72deb-723a-49d2-8f6b-ee76e9e39234"
             style="fill:#ff0000" />
        </g>
      </g>
      <g
         fill="#000000"
         fill-opacity="1"
         id="id-6f93f29e-2eb6-405f-9c5a-92deac03c3be"
         transform="translate(-149.415,-124.796)"
         style="fill:#ff0000">
        <g
           transform="translate(181.261,134.765)"
           id="g1462"
           style="fill:#ff0000">
          <path
             d="M 3.484375,-2.65625 5.8125,-5.21875 H 4.84375 L 3.1875,-3.3125 2.296875,-5.21875 H 1.375 L 2.546875,-2.65625 0.171875,0 h 0.96875 L 2.875,-2 3.78125,0 h 0.9375 z m 0,0"
             id="id-fe78112d-3534-4b7b-8285-f966ebb68e7c"
             style="fill:#ff0000" />
        </g>
      </g>
      <g
         fill="#000000"
         fill-opacity="1"
         id="id-9e31f713-617e-4309-87ad-866b151ef4ae"
         transform="translate(-149.415,-124.796)"
         style="fill:#ff0000">
        <g
           transform="translate(186.242,136.259)"
           id="g1466"
           style="fill:#ff0000">
          <path
             d="M 1.8125,-3.515625 V 0 h 0.609375 v -4.9375 h -0.40625 c -0.21875,0.75 -0.359375,0.859375 -1.3125,0.984375 v 0.4375 z m 0,0"
             id="id-dba6512f-896a-4b5b-bbb5-9373a2cb2a2e"
             style="fill:#ff0000" />
        </g>
      </g>
      <g
         fill="#000000"
         fill-opacity="1"
         id="id-3dd3df23-1472-4fec-a08a-072e75c1f754"
         transform="translate(-149.415,-124.796)"
         style="fill:#ff0000">
        <g
           transform="translate(190.617,134.765)"
           id="g1470"
           style="fill:#ff0000">
          <path
             d="M 0.875,-1.03125 V 0 H 1.46875 V 0.171875 C 1.46875,0.875 1.328125,1.0625 0.875,1.09375 v 0.375 c 0.6875,0 1.03125,-0.453125 1.03125,-1.3125 v -1.1875 z m 0,0"
             id="id-eb9f88c1-facb-4b84-933e-208922f52f08"
             style="fill:#ff0000" />
        </g>
      </g>
      <g
         fill="#000000"
         fill-opacity="1"
         id="id-2e8fe279-e25c-4118-98a3-1ef73fdaa6c2"
         transform="translate(-149.415,-124.796)"
         style="fill:#ff0000">
        <g
           transform="translate(193.387,134.765)"
           id="g1474"
           style="fill:#ff0000">
          <path
             d="M 5,-5.21875 2.671875,-1.171875 2.21875,-5.21875 H 1.3125 L 2,0.046875 1.46875,0.84375 C 1.203125,1.265625 1.046875,1.359375 0.671875,1.359375 c -0.09375,0 -0.15625,0 -0.4375,-0.03125 l -0.15625,0.75 c 0.1875,0.078125 0.296875,0.09375 0.484375,0.09375 0.71875,0 1.21875,-0.34375 1.65625,-1.078125 L 5.875,-5.21875 Z m 0,0"
             id="id-b00e4c93-99da-4fad-81c3-b55d15553db6"
             style="fill:#ff0000" />
        </g>
      </g>
      <g
         fill="#000000"
         fill-opacity="1"
         id="id-aea236c3-332a-4508-8fbe-2e7e4010cd61"
         transform="translate(-149.415,-124.796)"
         style="fill:#ff0000">
        <g
           transform="translate(198.368,136.259)"
           id="g1478"
           style="fill:#ff0000">
          <path
             d="M 1.8125,-3.515625 V 0 h 0.609375 v -4.9375 h -0.40625 c -0.21875,0.75 -0.359375,0.859375 -1.3125,0.984375 v 0.4375 z m 0,0"
             id="id-5d79914a-aafa-4665-8735-abd07f8ebbc4"
             style="fill:#ff0000" />
        </g>
      </g>
      <g
         fill="#000000"
         fill-opacity="1"
         id="id-7ff01390-96ad-4177-bfb4-df40637051f8"
         transform="translate(-149.415,-124.796)"
         style="fill:#ff0000">
        <g
           transform="translate(202.744,134.765)"
           id="g1482"
           style="fill:#ff0000">
          <path
             d="m 0.921875,2.109375 c 1,-1.296875 1.625,-3.109375 1.625,-4.6875 0,-1.5625 -0.625,-3.390625 -1.625,-4.6875 H 0.375 c 0.875,1.421875 1.375,3.09375 1.375,4.6875 0,1.59375 -0.5,3.28125 -1.375,4.6875 z m 0,0"
             id="id-e9c1c6ed-13f5-4c95-8026-06bc2df5cdcb"
             style="fill:#ff0000" />
        </g>
      </g>
    </g>
    <g
       transform="matrix(0.352778,0,0,0.352778,64.114527,29.895132)"
       ns3:version="1.8.1"
       ns3:texconverter="pdflatex"
       ns3:pdfconverter="inkscape"
       ns3:text="$m_2,\\va*R_2(x_2,\\!y_2)$"
       ns3:preamble="/Users/jeremy/Library/Application Support/org.inkscape.Inkscape/config/inkscape/extensions/textext/default_packages.tex"
       ns3:scale="1.0"
       ns3:alignment="middle center"
       ns3:stroke-to-path="0"
       ns3:inkscapeversion="1.2.2"
       ns3:jacobian_sqrt="0.352778"
       id="g35271"
       style="fill:#0000ff">
      <defs
         id="id-5e48a5c7-1779-489c-868b-baf5d8669f85">
        <g
           id="id-d09660b8-db6c-46b7-b493-425d98362c4a">
          <g
             id="id-66029711-4600-4e0b-ac77-90f63966a9a0" />
          <g
             id="id-876f308b-4fdd-4882-b552-d70e660ddc25">
            <path
               d="M 1.8125,-5.21875 0.703125,0 h 0.84375 L 2.25,-3.28125 c 0.15625,-0.75 0.828125,-1.375 1.5,-1.375 0.484375,0 0.8125,0.28125 0.8125,0.6875 0,0.109375 0,0.234375 -0.03125,0.375 L 3.765625,0 H 4.59375 l 0.703125,-3.28125 c 0.15625,-0.78125 0.84375,-1.375 1.5625,-1.375 0.46875,0 0.75,0.296875 0.75,0.765625 0,0.15625 0,0.15625 -0.078125,0.484375 L 6.8125,0 H 7.640625 L 8.4375,-3.71875 C 8.46875,-3.828125 8.5,-4.15625 8.5,-4.265625 8.5,-4.53125 8.375,-4.8125 8.171875,-5.03125 7.953125,-5.28125 7.6875,-5.375 7.234375,-5.375 c -0.65625,0 -1.21875,0.265625 -1.8125,0.828125 C 5.265625,-5.109375 4.875,-5.375 4.21875,-5.375 c -0.6875,0 -1.140625,0.203125 -1.78125,0.796875 L 2.578125,-5.21875 Z m 0,0"
               id="id-233d0948-16eb-4e54-a236-5bdcd9d7f4ac" />
          </g>
          <g
             id="id-26d877db-bd88-482b-ac82-5891c210d457">
            <path
               d="M 3.484375,-2.65625 5.8125,-5.21875 H 4.84375 L 3.1875,-3.3125 2.296875,-5.21875 H 1.375 L 2.546875,-2.65625 0.171875,0 h 0.96875 L 2.875,-2 3.78125,0 h 0.9375 z m 0,0"
               id="id-b0ad73e3-f416-41fd-9d13-0dd99b0e7d5e" />
          </g>
          <g
             id="id-5f574147-072d-425f-a3dc-da030f9cc991">
            <path
               d="M 5,-5.21875 2.671875,-1.171875 2.21875,-5.21875 H 1.3125 L 2,0.046875 1.46875,0.84375 C 1.203125,1.265625 1.046875,1.359375 0.671875,1.359375 c -0.09375,0 -0.15625,0 -0.4375,-0.03125 l -0.15625,0.75 c 0.1875,0.078125 0.296875,0.09375 0.484375,0.09375 0.71875,0 1.21875,-0.34375 1.65625,-1.078125 L 5.875,-5.21875 Z m 0,0"
               id="id-289edd4c-24c5-4ff7-92c0-c5406f77a06e" />
          </g>
          <g
             id="id-1431e231-3674-491e-b4f3-8da90beed1cf" />
          <g
             id="id-9fcab456-de27-4015-b281-e263d6ea8fbe">
            <path
               d="M 3.53125,-0.609375 H 0.921875 C 0.984375,-1.015625 1.21875,-1.265625 1.8125,-1.625 L 2.515625,-2 C 3.203125,-2.375 3.5625,-2.890625 3.5625,-3.484375 3.5625,-3.90625 3.390625,-4.28125 3.09375,-4.546875 2.8125,-4.8125 2.453125,-4.9375 1.984375,-4.9375 c -0.625,0 -1.09375,0.21875 -1.375,0.640625 -0.171875,0.265625 -0.25,0.5625 -0.265625,1.078125 h 0.625 C 0.984375,-3.5625 1.03125,-3.765625 1.109375,-3.921875 1.265625,-4.21875 1.59375,-4.40625 1.953125,-4.40625 2.515625,-4.40625 2.9375,-4 2.9375,-3.484375 2.9375,-3.09375 2.703125,-2.75 2.265625,-2.5 L 1.625,-2.140625 C 0.59375,-1.546875 0.296875,-1.09375 0.234375,0 H 3.53125 Z m 0,0"
               id="id-39dcdad9-178d-4548-90a0-5b55cbf9590b" />
          </g>
          <g
             id="id-8122666f-54aa-479e-9012-fc2945c7fee7" />
          <g
             id="id-520a4cf1-4013-406e-a47d-add04b86ef27">
            <path
               d="M 0.875,-1.03125 V 0 H 1.46875 V 0.171875 C 1.46875,0.875 1.328125,1.0625 0.875,1.09375 v 0.375 c 0.6875,0 1.03125,-0.453125 1.03125,-1.3125 v -1.1875 z m 0,0"
               id="id-849531b8-4c46-4171-b19e-fa08ddb10fd2" />
          </g>
          <g
             id="id-ca53ae2c-7a5e-4b70-89c0-a82869050e80">
            <path
               d="m 2.359375,-7.265625 c -1,1.296875 -1.625,3.125 -1.625,4.6875 0,1.578125 0.625,3.390625 1.625,4.6875 H 2.90625 c -0.875,-1.421875 -1.375,-3.09375 -1.375,-4.6875 0,-1.59375 0.5,-3.28125 1.375,-4.6875 z m 0,0"
               id="id-d9ebf146-219a-49c2-ab02-da5e61fad8ac" />
          </g>
          <g
             id="id-cd0a33ae-8099-4eb0-ac69-f52db1ecb622">
            <path
               d="m 0.921875,2.109375 c 1,-1.296875 1.625,-3.109375 1.625,-4.6875 0,-1.5625 -0.625,-3.390625 -1.625,-4.6875 H 0.375 c 0.875,1.421875 1.375,3.09375 1.375,4.6875 0,1.59375 -0.5,3.28125 -1.375,4.6875 z m 0,0"
               id="id-a17ab8f6-1711-431e-b983-5906b7392f15" />
          </g>
          <g
             id="id-ff1a45eb-2ff5-4e3d-8786-d35f067d13f5" />
          <g
             id="id-de408ff1-32b2-4e24-9f01-737a49536fe2">
            <path
               d="m 5.359375,-5.9375 c -0.140625,0.140625 -0.46875,0.421875 -0.46875,0.59375 0,0.09375 0.09375,0.203125 0.1875,0.203125 0.09375,0 0.140625,-0.078125 0.203125,-0.140625 C 5.390625,-5.421875 5.625,-5.703125 6.0625,-5.921875 6.125,-5.96875 6.234375,-6.015625 6.234375,-6.125 6.234375,-6.234375 6.15625,-6.28125 6.09375,-6.328125 5.875,-6.484375 5.765625,-6.65625 5.6875,-6.890625 5.65625,-6.984375 5.625,-7.125 5.484375,-7.125 c -0.140625,0 -0.203125,0.140625 -0.203125,0.21875 0,0.046875 0.078125,0.359375 0.234375,0.578125 H 2.15625 c -0.15625,0 -0.34375,0 -0.34375,0.203125 0,0.1875 0.1875,0.1875 0.34375,0.1875 z m 0,0"
               id="id-0a46547c-2acc-4064-9b24-9cac1523958c" />
          </g>
          <g
             id="id-0c931a19-707f-4e6c-8276-18e55e2d5c66" />
          <g
             id="id-495e8674-df7b-4149-8bf6-c47ea57aba92">
            <path
               d="m 2.90625,-2.875 h 1.703125 c 0.578125,0 0.859375,0.171875 0.859375,0.546875 0,0.109375 -0.03125,0.25 -0.125,0.609375 -0.1875,0.6875 -0.265625,1.046875 -0.265625,1.3125 0,0.109375 0.03125,0.21875 0.078125,0.40625 H 6.75 L 6.8125,-0.265625 C 6.671875,-0.375 6.625,-0.46875 6.625,-0.609375 c 0,-0.0625 0.015625,-0.15625 0.03125,-0.265625 0.234375,-1.21875 0.28125,-1.5625 0.28125,-1.8125 0,-0.390625 -0.265625,-0.65625 -0.78125,-0.828125 0.53125,-0.25 0.796875,-0.421875 1.03125,-0.671875 0.390625,-0.390625 0.640625,-1.03125 0.640625,-1.578125 0,-0.390625 -0.15625,-0.78125 -0.4375,-1.046875 -0.3125,-0.3125 -0.71875,-0.453125 -1.296875,-0.453125 h -3.75 L 0.796875,0 h 1.5 z M 3.171875,-4.125 3.5625,-6.015625 H 5.25 c 0.453125,0 0.6875,0.046875 0.875,0.203125 0.140625,0.125 0.21875,0.296875 0.21875,0.484375 0,0.28125 -0.125,0.59375 -0.296875,0.796875 C 5.78125,-4.25 5.46875,-4.125 4.96875,-4.125 Z m 0,0"
               id="id-e6a1f6e8-c038-4e62-88c1-11c018123e48" />
          </g>
        </g>
      </defs>
      <g
         fill="#000000"
         fill-opacity="1"
         id="id-f827d6fb-d31e-483f-a2b9-772501a97eab"
         transform="translate(-149.415,-124.796)"
         style="fill:#0000ff">
        <g
           transform="translate(148.712,134.765)"
           id="g2261"
           style="fill:#0000ff">
          <path
             d="M 1.8125,-5.21875 0.703125,0 h 0.84375 L 2.25,-3.28125 c 0.15625,-0.75 0.828125,-1.375 1.5,-1.375 0.484375,0 0.8125,0.28125 0.8125,0.6875 0,0.109375 0,0.234375 -0.03125,0.375 L 3.765625,0 H 4.59375 l 0.703125,-3.28125 c 0.15625,-0.78125 0.84375,-1.375 1.5625,-1.375 0.46875,0 0.75,0.296875 0.75,0.765625 0,0.15625 0,0.15625 -0.078125,0.484375 L 6.8125,0 H 7.640625 L 8.4375,-3.71875 C 8.46875,-3.828125 8.5,-4.15625 8.5,-4.265625 8.5,-4.53125 8.375,-4.8125 8.171875,-5.03125 7.953125,-5.28125 7.6875,-5.375 7.234375,-5.375 c -0.65625,0 -1.21875,0.265625 -1.8125,0.828125 C 5.265625,-5.109375 4.875,-5.375 4.21875,-5.375 c -0.6875,0 -1.140625,0.203125 -1.78125,0.796875 L 2.578125,-5.21875 Z m 0,0"
             id="id-3b4e31be-a29e-48a6-8a9d-dd97e9d9b48b"
             style="fill:#0000ff" />
        </g>
      </g>
      <g
         fill="#000000"
         fill-opacity="1"
         id="id-1261f168-c91d-4436-b9e2-349218e49428"
         transform="translate(-149.415,-124.796)"
         style="fill:#0000ff">
        <g
           transform="translate(157.011,136.259)"
           id="g2265"
           style="fill:#0000ff">
          <path
             d="M 3.53125,-0.609375 H 0.921875 C 0.984375,-1.015625 1.21875,-1.265625 1.8125,-1.625 L 2.515625,-2 C 3.203125,-2.375 3.5625,-2.890625 3.5625,-3.484375 3.5625,-3.90625 3.390625,-4.28125 3.09375,-4.546875 2.8125,-4.8125 2.453125,-4.9375 1.984375,-4.9375 c -0.625,0 -1.09375,0.21875 -1.375,0.640625 -0.171875,0.265625 -0.25,0.5625 -0.265625,1.078125 h 0.625 C 0.984375,-3.5625 1.03125,-3.765625 1.109375,-3.921875 1.265625,-4.21875 1.59375,-4.40625 1.953125,-4.40625 2.515625,-4.40625 2.9375,-4 2.9375,-3.484375 2.9375,-3.09375 2.703125,-2.75 2.265625,-2.5 L 1.625,-2.140625 C 0.59375,-1.546875 0.296875,-1.09375 0.234375,0 H 3.53125 Z m 0,0"
             id="id-39cca29a-1f92-4c40-876f-03aa132f34d2"
             style="fill:#0000ff" />
        </g>
      </g>
      <g
         fill="#000000"
         fill-opacity="1"
         id="id-7a7fd254-2e0c-456b-9eb4-126ff6fbd1cc"
         transform="translate(-149.415,-124.796)"
         style="fill:#0000ff">
        <g
           transform="translate(161.387,134.765)"
           id="g2269"
           style="fill:#0000ff">
          <path
             d="M 0.875,-1.03125 V 0 H 1.46875 V 0.171875 C 1.46875,0.875 1.328125,1.0625 0.875,1.09375 v 0.375 c 0.6875,0 1.03125,-0.453125 1.03125,-1.3125 v -1.1875 z m 0,0"
             id="id-6ce0a240-9d8c-48a8-95b6-a3c1bc9580b4"
             style="fill:#0000ff" />
        </g>
      </g>
      <g
         fill="#000000"
         fill-opacity="1"
         id="id-cf0b6ce7-9c89-45e0-9a81-e03d520fbb1e"
         transform="translate(-149.415,-124.796)"
         style="fill:#0000ff">
        <g
           transform="translate(166.435,131.921)"
           id="g2273"
           style="fill:#0000ff">
          <path
             d="m 5.359375,-5.9375 c -0.140625,0.140625 -0.46875,0.421875 -0.46875,0.59375 0,0.09375 0.09375,0.203125 0.1875,0.203125 0.09375,0 0.140625,-0.078125 0.203125,-0.140625 C 5.390625,-5.421875 5.625,-5.703125 6.0625,-5.921875 6.125,-5.96875 6.234375,-6.015625 6.234375,-6.125 6.234375,-6.234375 6.15625,-6.28125 6.09375,-6.328125 5.875,-6.484375 5.765625,-6.65625 5.6875,-6.890625 5.65625,-6.984375 5.625,-7.125 5.484375,-7.125 c -0.140625,0 -0.203125,0.140625 -0.203125,0.21875 0,0.046875 0.078125,0.359375 0.234375,0.578125 H 2.15625 c -0.15625,0 -0.34375,0 -0.34375,0.203125 0,0.1875 0.1875,0.1875 0.34375,0.1875 z m 0,0"
             id="id-927b0342-bad4-4306-9261-8f53fef10cd8"
             style="fill:#0000ff" />
        </g>
      </g>
      <g
         fill="#000000"
         fill-opacity="1"
         id="id-72097071-a088-4307-a040-c842f803c8ce"
         transform="translate(-149.415,-124.796)"
         style="fill:#0000ff">
        <g
           transform="translate(165.817,134.765)"
           id="g2277"
           style="fill:#0000ff">
          <path
             d="m 2.90625,-2.875 h 1.703125 c 0.578125,0 0.859375,0.171875 0.859375,0.546875 0,0.109375 -0.03125,0.25 -0.125,0.609375 -0.1875,0.6875 -0.265625,1.046875 -0.265625,1.3125 0,0.109375 0.03125,0.21875 0.078125,0.40625 H 6.75 L 6.8125,-0.265625 C 6.671875,-0.375 6.625,-0.46875 6.625,-0.609375 c 0,-0.0625 0.015625,-0.15625 0.03125,-0.265625 0.234375,-1.21875 0.28125,-1.5625 0.28125,-1.8125 0,-0.390625 -0.265625,-0.65625 -0.78125,-0.828125 0.53125,-0.25 0.796875,-0.421875 1.03125,-0.671875 0.390625,-0.390625 0.640625,-1.03125 0.640625,-1.578125 0,-0.390625 -0.15625,-0.78125 -0.4375,-1.046875 -0.3125,-0.3125 -0.71875,-0.453125 -1.296875,-0.453125 h -3.75 L 0.796875,0 h 1.5 z M 3.171875,-4.125 3.5625,-6.015625 H 5.25 c 0.453125,0 0.6875,0.046875 0.875,0.203125 0.140625,0.125 0.21875,0.296875 0.21875,0.484375 0,0.28125 -0.125,0.59375 -0.296875,0.796875 C 5.78125,-4.25 5.46875,-4.125 4.96875,-4.125 Z m 0,0"
             id="id-6f7c9b37-7c1d-442a-a392-ef98eea0d9ad"
             style="fill:#0000ff" />
        </g>
      </g>
      <g
         fill="#000000"
         fill-opacity="1"
         id="id-10e73d1e-dc22-429c-a0b1-3736d5b17183"
         transform="translate(-149.415,-124.796)"
         style="fill:#0000ff">
        <g
           transform="translate(173.567,136.259)"
           id="g2281"
           style="fill:#0000ff">
          <path
             d="M 3.53125,-0.609375 H 0.921875 C 0.984375,-1.015625 1.21875,-1.265625 1.8125,-1.625 L 2.515625,-2 C 3.203125,-2.375 3.5625,-2.890625 3.5625,-3.484375 3.5625,-3.90625 3.390625,-4.28125 3.09375,-4.546875 2.8125,-4.8125 2.453125,-4.9375 1.984375,-4.9375 c -0.625,0 -1.09375,0.21875 -1.375,0.640625 -0.171875,0.265625 -0.25,0.5625 -0.265625,1.078125 h 0.625 C 0.984375,-3.5625 1.03125,-3.765625 1.109375,-3.921875 1.265625,-4.21875 1.59375,-4.40625 1.953125,-4.40625 2.515625,-4.40625 2.9375,-4 2.9375,-3.484375 2.9375,-3.09375 2.703125,-2.75 2.265625,-2.5 L 1.625,-2.140625 C 0.59375,-1.546875 0.296875,-1.09375 0.234375,0 H 3.53125 Z m 0,0"
             id="id-94a52790-472d-4c5a-8185-b702ed565c01"
             style="fill:#0000ff" />
        </g>
      </g>
      <g
         fill="#000000"
         fill-opacity="1"
         id="id-786d43e3-e821-4405-a2b5-82dde38d12d9"
         transform="translate(-149.415,-124.796)"
         style="fill:#0000ff">
        <g
           transform="translate(177.943,134.765)"
           id="g2285"
           style="fill:#0000ff">
          <path
             d="m 2.359375,-7.265625 c -1,1.296875 -1.625,3.125 -1.625,4.6875 0,1.578125 0.625,3.390625 1.625,4.6875 H 2.90625 c -0.875,-1.421875 -1.375,-3.09375 -1.375,-4.6875 0,-1.59375 0.5,-3.28125 1.375,-4.6875 z m 0,0"
             id="id-3caab705-c60d-4241-a787-775d847f38b0"
             style="fill:#0000ff" />
        </g>
      </g>
      <g
         fill="#000000"
         fill-opacity="1"
         id="id-6b2246a8-d519-4e3b-8f49-c60b2466b59f"
         transform="translate(-149.415,-124.796)"
         style="fill:#0000ff">
        <g
           transform="translate(181.261,134.765)"
           id="g2289"
           style="fill:#0000ff">
          <path
             d="M 3.484375,-2.65625 5.8125,-5.21875 H 4.84375 L 3.1875,-3.3125 2.296875,-5.21875 H 1.375 L 2.546875,-2.65625 0.171875,0 h 0.96875 L 2.875,-2 3.78125,0 h 0.9375 z m 0,0"
             id="id-286b5f07-efe8-47a5-8839-a50a5913652a"
             style="fill:#0000ff" />
        </g>
      </g>
      <g
         fill="#000000"
         fill-opacity="1"
         id="id-15bc39d5-b1d4-4676-abcc-3f1eb7ee00a5"
         transform="translate(-149.415,-124.796)"
         style="fill:#0000ff">
        <g
           transform="translate(186.242,136.259)"
           id="g2293"
           style="fill:#0000ff">
          <path
             d="M 3.53125,-0.609375 H 0.921875 C 0.984375,-1.015625 1.21875,-1.265625 1.8125,-1.625 L 2.515625,-2 C 3.203125,-2.375 3.5625,-2.890625 3.5625,-3.484375 3.5625,-3.90625 3.390625,-4.28125 3.09375,-4.546875 2.8125,-4.8125 2.453125,-4.9375 1.984375,-4.9375 c -0.625,0 -1.09375,0.21875 -1.375,0.640625 -0.171875,0.265625 -0.25,0.5625 -0.265625,1.078125 h 0.625 C 0.984375,-3.5625 1.03125,-3.765625 1.109375,-3.921875 1.265625,-4.21875 1.59375,-4.40625 1.953125,-4.40625 2.515625,-4.40625 2.9375,-4 2.9375,-3.484375 2.9375,-3.09375 2.703125,-2.75 2.265625,-2.5 L 1.625,-2.140625 C 0.59375,-1.546875 0.296875,-1.09375 0.234375,0 H 3.53125 Z m 0,0"
             id="id-61e13082-f376-44bb-8c80-5907536dc7c0"
             style="fill:#0000ff" />
        </g>
      </g>
      <g
         fill="#000000"
         fill-opacity="1"
         id="id-478a1645-2423-4cef-9cf1-34d4766b3712"
         transform="translate(-149.415,-124.796)"
         style="fill:#0000ff">
        <g
           transform="translate(190.617,134.765)"
           id="g2297"
           style="fill:#0000ff">
          <path
             d="M 0.875,-1.03125 V 0 H 1.46875 V 0.171875 C 1.46875,0.875 1.328125,1.0625 0.875,1.09375 v 0.375 c 0.6875,0 1.03125,-0.453125 1.03125,-1.3125 v -1.1875 z m 0,0"
             id="id-23b60109-41a5-419f-870d-e89d67fcbe87"
             style="fill:#0000ff" />
        </g>
      </g>
      <g
         fill="#000000"
         fill-opacity="1"
         id="id-29366c22-2751-4d6f-9316-0e2f77f9053a"
         transform="translate(-149.415,-124.796)"
         style="fill:#0000ff">
        <g
           transform="translate(193.387,134.765)"
           id="g2301"
           style="fill:#0000ff">
          <path
             d="M 5,-5.21875 2.671875,-1.171875 2.21875,-5.21875 H 1.3125 L 2,0.046875 1.46875,0.84375 C 1.203125,1.265625 1.046875,1.359375 0.671875,1.359375 c -0.09375,0 -0.15625,0 -0.4375,-0.03125 l -0.15625,0.75 c 0.1875,0.078125 0.296875,0.09375 0.484375,0.09375 0.71875,0 1.21875,-0.34375 1.65625,-1.078125 L 5.875,-5.21875 Z m 0,0"
             id="id-5edd1d8e-c850-4df4-b133-039b6f086a12"
             style="fill:#0000ff" />
        </g>
      </g>
      <g
         fill="#000000"
         fill-opacity="1"
         id="id-a7aa6804-8e09-4e88-80a6-ddee7fa6f134"
         transform="translate(-149.415,-124.796)"
         style="fill:#0000ff">
        <g
           transform="translate(198.368,136.259)"
           id="g2305"
           style="fill:#0000ff">
          <path
             d="M 3.53125,-0.609375 H 0.921875 C 0.984375,-1.015625 1.21875,-1.265625 1.8125,-1.625 L 2.515625,-2 C 3.203125,-2.375 3.5625,-2.890625 3.5625,-3.484375 3.5625,-3.90625 3.390625,-4.28125 3.09375,-4.546875 2.8125,-4.8125 2.453125,-4.9375 1.984375,-4.9375 c -0.625,0 -1.09375,0.21875 -1.375,0.640625 -0.171875,0.265625 -0.25,0.5625 -0.265625,1.078125 h 0.625 C 0.984375,-3.5625 1.03125,-3.765625 1.109375,-3.921875 1.265625,-4.21875 1.59375,-4.40625 1.953125,-4.40625 2.515625,-4.40625 2.9375,-4 2.9375,-3.484375 2.9375,-3.09375 2.703125,-2.75 2.265625,-2.5 L 1.625,-2.140625 C 0.59375,-1.546875 0.296875,-1.09375 0.234375,0 H 3.53125 Z m 0,0"
             id="id-ffd2047f-e565-478a-a199-b7481c266364"
             style="fill:#0000ff" />
        </g>
      </g>
      <g
         fill="#000000"
         fill-opacity="1"
         id="id-40c11459-a03b-41f6-86a3-c1577a767c18"
         transform="translate(-149.415,-124.796)"
         style="fill:#0000ff">
        <g
           transform="translate(202.744,134.765)"
           id="g2309"
           style="fill:#0000ff">
          <path
             d="m 0.921875,2.109375 c 1,-1.296875 1.625,-3.109375 1.625,-4.6875 0,-1.5625 -0.625,-3.390625 -1.625,-4.6875 H 0.375 c 0.875,1.421875 1.375,3.09375 1.375,4.6875 0,1.59375 -0.5,3.28125 -1.375,4.6875 z m 0,0"
             id="id-b0d040ae-0829-46be-9f8b-3339e4b17bcc"
             style="fill:#0000ff" />
        </g>
      </g>
    </g>
    <g
       transform="matrix(0.352778,0,0,0.352778,5.2444166,25.463365)"
       ns3:version="1.8.1"
       ns3:texconverter="pdflatex"
       ns3:pdfconverter="inkscape"
       ns3:text="$d_1$"
       ns3:preamble="/Users/jeremy/Library/Application Support/org.inkscape.Inkscape/config/inkscape/extensions/textext/default_packages.tex"
       ns3:scale="1.0"
       ns3:alignment="middle center"
       ns3:stroke-to-path="0"
       ns3:inkscapeversion="1.2.2"
       ns3:jacobian_sqrt="0.352778"
       id="g25141"
       style="fill:#ff0000">
      <defs
         id="id-66f39af4-ba98-4400-b744-0283ee42f974">
        <g
           id="id-a3e7f043-cd19-4ea4-bdb8-0e001eb88a2c">
          <g
             id="id-d1e24ae3-f357-4ebd-8bfc-d386908c8231" />
          <g
             id="id-e4846e85-e98c-46bd-8904-998b1a7b8625">
            <path
               d="M 6.484375,-7.265625 H 5.640625 L 5.046875,-4.46875 C 4.71875,-5.109375 4.328125,-5.375 3.625,-5.375 c -1.65625,0 -2.890625,1.578125 -2.890625,3.6875 0,1.15625 0.65625,1.921875 1.703125,1.921875 0.421875,0 0.875,-0.140625 1.28125,-0.390625 C 4.015625,-0.328125 4.140625,-0.484375 4.28125,-0.75 L 4.125,0 h 0.8125 z m -2.953125,2.65625 c 0.75,0 1.1875,0.5 1.1875,1.34375 0,0.59375 -0.15625,1.203125 -0.46875,1.71875 C 3.875,-0.875 3.375,-0.53125 2.765625,-0.53125 c -0.734375,0 -1.15625,-0.5 -1.15625,-1.359375 0,-0.5625 0.171875,-1.203125 0.4375,-1.703125 0.375,-0.6875 0.859375,-1.015625 1.484375,-1.015625 z m 0,0"
               id="id-73093cb0-cede-4517-91b7-88af23f4629b" />
          </g>
          <g
             id="id-9812f8c2-53b8-4ab7-9e49-7996067db02a" />
          <g
             id="id-038c62e5-c94c-40b3-9a19-b89a6d26403f">
            <path
               d="M 1.8125,-3.515625 V 0 h 0.609375 v -4.9375 h -0.40625 c -0.21875,0.75 -0.359375,0.859375 -1.3125,0.984375 v 0.4375 z m 0,0"
               id="id-d7bb373e-11cf-4538-b069-52c9304f5126" />
          </g>
        </g>
      </defs>
      <g
         fill="#000000"
         fill-opacity="1"
         id="id-91735fc4-d53c-4ac5-9d02-49b840340ec8"
         transform="translate(-149.446,-127.499)"
         style="fill:#ff0000">
        <g
           transform="translate(148.712,134.765)"
           id="g1467"
           style="fill:#ff0000">
          <path
             d="M 6.484375,-7.265625 H 5.640625 L 5.046875,-4.46875 C 4.71875,-5.109375 4.328125,-5.375 3.625,-5.375 c -1.65625,0 -2.890625,1.578125 -2.890625,3.6875 0,1.15625 0.65625,1.921875 1.703125,1.921875 0.421875,0 0.875,-0.140625 1.28125,-0.390625 C 4.015625,-0.328125 4.140625,-0.484375 4.28125,-0.75 L 4.125,0 h 0.8125 z m -2.953125,2.65625 c 0.75,0 1.1875,0.5 1.1875,1.34375 0,0.59375 -0.15625,1.203125 -0.46875,1.71875 C 3.875,-0.875 3.375,-0.53125 2.765625,-0.53125 c -0.734375,0 -1.15625,-0.5 -1.15625,-1.359375 0,-0.5625 0.171875,-1.203125 0.4375,-1.703125 0.375,-0.6875 0.859375,-1.015625 1.484375,-1.015625 z m 0,0"
             id="id-d8956835-355e-4b54-8951-e62e3f068cca"
             style="fill:#ff0000" />
        </g>
      </g>
      <g
         fill="#000000"
         fill-opacity="1"
         id="id-e49ad1bf-8494-4528-8296-f55f3f0a6ab2"
         transform="translate(-149.446,-127.499)"
         style="fill:#ff0000">
        <g
           transform="translate(154.251,136.259)"
           id="g1471"
           style="fill:#ff0000">
          <path
             d="M 1.8125,-3.515625 V 0 h 0.609375 v -4.9375 h -0.40625 c -0.21875,0.75 -0.359375,0.859375 -1.3125,0.984375 v 0.4375 z m 0,0"
             id="id-8dfb9025-d1ed-4012-92fd-07e1f8b0559c"
             style="fill:#ff0000" />
        </g>
      </g>
    </g>
    <g
       transform="matrix(0.352778,0,0,0.352778,78.583873,23.093068)"
       ns3:version="1.8.1"
       ns3:texconverter="pdflatex"
       ns3:pdfconverter="inkscape"
       ns3:text="$d_2$"
       ns3:preamble="/Users/jeremy/Library/Application Support/org.inkscape.Inkscape/config/inkscape/extensions/textext/default_packages.tex"
       ns3:scale="1.0"
       ns3:alignment="middle center"
       ns3:stroke-to-path="0"
       ns3:inkscapeversion="1.2.2"
       ns3:jacobian_sqrt="0.352778"
       id="g23786"
       style="fill:#0000ff">
      <defs
         id="id-149d8570-6a87-4c19-833d-4de737569df1">
        <g
           id="id-8297f1fc-ae61-491d-a1c2-5d00f22c2113">
          <g
             id="id-eac05258-cc77-402b-b49f-008b7db0fde0" />
          <g
             id="id-15f34c44-4d5d-4cb7-a222-9efb5673fb44">
            <path
               d="M 6.484375,-7.265625 H 5.640625 L 5.046875,-4.46875 C 4.71875,-5.109375 4.328125,-5.375 3.625,-5.375 c -1.65625,0 -2.890625,1.578125 -2.890625,3.6875 0,1.15625 0.65625,1.921875 1.703125,1.921875 0.421875,0 0.875,-0.140625 1.28125,-0.390625 C 4.015625,-0.328125 4.140625,-0.484375 4.28125,-0.75 L 4.125,0 h 0.8125 z m -2.953125,2.65625 c 0.75,0 1.1875,0.5 1.1875,1.34375 0,0.59375 -0.15625,1.203125 -0.46875,1.71875 C 3.875,-0.875 3.375,-0.53125 2.765625,-0.53125 c -0.734375,0 -1.15625,-0.5 -1.15625,-1.359375 0,-0.5625 0.171875,-1.203125 0.4375,-1.703125 0.375,-0.6875 0.859375,-1.015625 1.484375,-1.015625 z m 0,0"
               id="id-c98bcdfe-4364-4a38-b33c-9d6cf80e8995" />
          </g>
          <g
             id="id-3d0c0dc5-3114-44c8-8807-8518a1384e40" />
          <g
             id="id-c9ce55e2-ec2e-4e36-826a-a8fec1b1c1d6">
            <path
               d="M 3.53125,-0.609375 H 0.921875 C 0.984375,-1.015625 1.21875,-1.265625 1.8125,-1.625 L 2.515625,-2 C 3.203125,-2.375 3.5625,-2.890625 3.5625,-3.484375 3.5625,-3.90625 3.390625,-4.28125 3.09375,-4.546875 2.8125,-4.8125 2.453125,-4.9375 1.984375,-4.9375 c -0.625,0 -1.09375,0.21875 -1.375,0.640625 -0.171875,0.265625 -0.25,0.5625 -0.265625,1.078125 h 0.625 C 0.984375,-3.5625 1.03125,-3.765625 1.109375,-3.921875 1.265625,-4.21875 1.59375,-4.40625 1.953125,-4.40625 2.515625,-4.40625 2.9375,-4 2.9375,-3.484375 2.9375,-3.09375 2.703125,-2.75 2.265625,-2.5 L 1.625,-2.140625 C 0.59375,-1.546875 0.296875,-1.09375 0.234375,0 H 3.53125 Z m 0,0"
               id="id-1dd36e72-20fb-491d-942c-c7ea5291df3a" />
          </g>
        </g>
      </defs>
      <g
         fill="#000000"
         fill-opacity="1"
         id="id-25d0fe62-ad54-4528-85b4-a2a66d78ac74"
         transform="translate(-149.446,-127.499)"
         style="fill:#0000ff">
        <g
           transform="translate(148.712,134.765)"
           id="g3341"
           style="fill:#0000ff">
          <path
             d="M 6.484375,-7.265625 H 5.640625 L 5.046875,-4.46875 C 4.71875,-5.109375 4.328125,-5.375 3.625,-5.375 c -1.65625,0 -2.890625,1.578125 -2.890625,3.6875 0,1.15625 0.65625,1.921875 1.703125,1.921875 0.421875,0 0.875,-0.140625 1.28125,-0.390625 C 4.015625,-0.328125 4.140625,-0.484375 4.28125,-0.75 L 4.125,0 h 0.8125 z m -2.953125,2.65625 c 0.75,0 1.1875,0.5 1.1875,1.34375 0,0.59375 -0.15625,1.203125 -0.46875,1.71875 C 3.875,-0.875 3.375,-0.53125 2.765625,-0.53125 c -0.734375,0 -1.15625,-0.5 -1.15625,-1.359375 0,-0.5625 0.171875,-1.203125 0.4375,-1.703125 0.375,-0.6875 0.859375,-1.015625 1.484375,-1.015625 z m 0,0"
             id="id-40034c5a-933e-4860-833f-a49668ddf94b"
             style="fill:#0000ff" />
        </g>
      </g>
      <g
         fill="#000000"
         fill-opacity="1"
         id="id-9995b46f-9006-479c-aaf9-f162c17c86aa"
         transform="translate(-149.446,-127.499)"
         style="fill:#0000ff">
        <g
           transform="translate(154.251,136.259)"
           id="g3345"
           style="fill:#0000ff">
          <path
             d="M 3.53125,-0.609375 H 0.921875 C 0.984375,-1.015625 1.21875,-1.265625 1.8125,-1.625 L 2.515625,-2 C 3.203125,-2.375 3.5625,-2.890625 3.5625,-3.484375 3.5625,-3.90625 3.390625,-4.28125 3.09375,-4.546875 2.8125,-4.8125 2.453125,-4.9375 1.984375,-4.9375 c -0.625,0 -1.09375,0.21875 -1.375,0.640625 -0.171875,0.265625 -0.25,0.5625 -0.265625,1.078125 h 0.625 C 0.984375,-3.5625 1.03125,-3.765625 1.109375,-3.921875 1.265625,-4.21875 1.59375,-4.40625 1.953125,-4.40625 2.515625,-4.40625 2.9375,-4 2.9375,-3.484375 2.9375,-3.09375 2.703125,-2.75 2.265625,-2.5 L 1.625,-2.140625 C 0.59375,-1.546875 0.296875,-1.09375 0.234375,0 H 3.53125 Z m 0,0"
             id="id-aa7e3e24-3870-4f4b-9bfd-d51261b1f597"
             style="fill:#0000ff" />
        </g>
      </g>
    </g>
    <g
       transform="matrix(0.352778,0,0,0.352778,60.435532,7.4573632)"
       ns3:version="1.8.1"
       ns3:texconverter="pdflatex"
       ns3:pdfconverter="inkscape"
       ns3:text="$\\va*r_2$"
       ns3:preamble="/Users/jeremy/Library/Application Support/org.inkscape.Inkscape/config/inkscape/extensions/textext/default_packages.tex"
       ns3:scale="1.0"
       ns3:alignment="middle center"
       ns3:stroke-to-path="0"
       ns3:inkscapeversion="1.2.2"
       ns3:jacobian_sqrt="0.352778"
       id="g9713"
       style="fill:#0000ff">
      <defs
         id="id-09fb2f17-a06a-4c79-bcba-5dcf8913f149">
        <g
           id="id-2ea3dd41-606e-444d-a575-0b2a60faf8b6">
          <g
             id="id-29cd5750-cf3f-45fc-bbd9-67f5122fd421" />
          <g
             id="id-eb02c49f-e912-4867-aa47-a938f6dad6fc">
            <path
               d="m 5.359375,-5.9375 c -0.140625,0.140625 -0.46875,0.421875 -0.46875,0.59375 0,0.09375 0.09375,0.203125 0.1875,0.203125 0.09375,0 0.140625,-0.078125 0.203125,-0.140625 C 5.390625,-5.421875 5.625,-5.703125 6.0625,-5.921875 6.125,-5.96875 6.234375,-6.015625 6.234375,-6.125 6.234375,-6.234375 6.15625,-6.28125 6.09375,-6.328125 5.875,-6.484375 5.765625,-6.65625 5.6875,-6.890625 5.65625,-6.984375 5.625,-7.125 5.484375,-7.125 c -0.140625,0 -0.203125,0.140625 -0.203125,0.21875 0,0.046875 0.078125,0.359375 0.234375,0.578125 H 2.15625 c -0.15625,0 -0.34375,0 -0.34375,0.203125 0,0.1875 0.1875,0.1875 0.34375,0.1875 z m 0,0"
               id="id-ffd18e77-9948-4055-b953-667befaca074" />
          </g>
          <g
             id="id-a7bcce5c-1f8d-46af-8dd7-188f79ab4424" />
          <g
             id="id-58aa65ff-d6bb-4c57-974e-f39e29830726">
            <path
               d="M 1.78125,-5.390625 0.625,0 H 2.03125 L 2.625,-2.859375 c 0.171875,-0.8125 0.6875,-1.234375 1.5,-1.234375 0.15625,0 0.25,0.015625 0.4375,0.046875 L 4.859375,-5.46875 c -0.078125,0 -0.140625,0 -0.171875,0 -0.640625,0 -1.28125,0.421875 -1.75,1.140625 l 0.234375,-1.0625 z m 0,0"
               id="id-37603df4-15ce-4e5c-a240-77a64b5541dc" />
          </g>
          <g
             id="id-de5afc0b-9e6e-421e-a42d-461e57c405f9" />
          <g
             id="id-a6004f31-5295-4c4b-9d78-e7d2bc66d14f">
            <path
               d="M 3.53125,-0.609375 H 0.921875 C 0.984375,-1.015625 1.21875,-1.265625 1.8125,-1.625 L 2.515625,-2 C 3.203125,-2.375 3.5625,-2.890625 3.5625,-3.484375 3.5625,-3.90625 3.390625,-4.28125 3.09375,-4.546875 2.8125,-4.8125 2.453125,-4.9375 1.984375,-4.9375 c -0.625,0 -1.09375,0.21875 -1.375,0.640625 -0.171875,0.265625 -0.25,0.5625 -0.265625,1.078125 h 0.625 C 0.984375,-3.5625 1.03125,-3.765625 1.109375,-3.921875 1.265625,-4.21875 1.59375,-4.40625 1.953125,-4.40625 2.515625,-4.40625 2.9375,-4 2.9375,-3.484375 2.9375,-3.09375 2.703125,-2.75 2.265625,-2.5 L 1.625,-2.140625 C 0.59375,-1.546875 0.296875,-1.09375 0.234375,0 H 3.53125 Z m 0,0"
               id="id-21c1e53a-202c-4be0-85cd-6775a81fc67b" />
          </g>
        </g>
      </defs>
      <g
         fill="#000000"
         fill-opacity="1"
         id="id-81993e36-c851-4cd3-976e-c28a22896125"
         transform="translate(-149.337,-126.49)"
         style="fill:#0000ff">
        <g
           transform="translate(147.891,133.615)"
           id="g9702"
           style="fill:#0000ff">
          <path
             d="m 5.359375,-5.9375 c -0.140625,0.140625 -0.46875,0.421875 -0.46875,0.59375 0,0.09375 0.09375,0.203125 0.1875,0.203125 0.09375,0 0.140625,-0.078125 0.203125,-0.140625 C 5.390625,-5.421875 5.625,-5.703125 6.0625,-5.921875 6.125,-5.96875 6.234375,-6.015625 6.234375,-6.125 6.234375,-6.234375 6.15625,-6.28125 6.09375,-6.328125 5.875,-6.484375 5.765625,-6.65625 5.6875,-6.890625 5.65625,-6.984375 5.625,-7.125 5.484375,-7.125 c -0.140625,0 -0.203125,0.140625 -0.203125,0.21875 0,0.046875 0.078125,0.359375 0.234375,0.578125 H 2.15625 c -0.15625,0 -0.34375,0 -0.34375,0.203125 0,0.1875 0.1875,0.1875 0.34375,0.1875 z m 0,0"
             id="id-8ef7c94a-d0ff-4833-95cb-8d2a8fcfddf0"
             style="fill:#0000ff" />
        </g>
      </g>
      <g
         fill="#000000"
         fill-opacity="1"
         id="id-a512151d-5fe3-4a1e-a3e4-84c874dd4d1a"
         transform="translate(-149.337,-126.49)"
         style="fill:#0000ff">
        <g
           transform="translate(148.712,134.765)"
           id="g9706"
           style="fill:#0000ff">
          <path
             d="M 1.78125,-5.390625 0.625,0 H 2.03125 L 2.625,-2.859375 c 0.171875,-0.8125 0.6875,-1.234375 1.5,-1.234375 0.15625,0 0.25,0.015625 0.4375,0.046875 L 4.859375,-5.46875 c -0.078125,0 -0.140625,0 -0.171875,0 -0.640625,0 -1.28125,0.421875 -1.75,1.140625 l 0.234375,-1.0625 z m 0,0"
             id="id-84e80faf-4259-4097-a973-2f486920123a"
             style="fill:#0000ff" />
        </g>
      </g>
      <g
         fill="#000000"
         fill-opacity="1"
         id="id-34372621-b980-492c-99e0-1afcc849f6c9"
         transform="translate(-149.337,-126.49)"
         style="fill:#0000ff">
        <g
           transform="translate(153.584,136.259)"
           id="g9710"
           style="fill:#0000ff">
          <path
             d="M 3.53125,-0.609375 H 0.921875 C 0.984375,-1.015625 1.21875,-1.265625 1.8125,-1.625 L 2.515625,-2 C 3.203125,-2.375 3.5625,-2.890625 3.5625,-3.484375 3.5625,-3.90625 3.390625,-4.28125 3.09375,-4.546875 2.8125,-4.8125 2.453125,-4.9375 1.984375,-4.9375 c -0.625,0 -1.09375,0.21875 -1.375,0.640625 -0.171875,0.265625 -0.25,0.5625 -0.265625,1.078125 h 0.625 C 0.984375,-3.5625 1.03125,-3.765625 1.109375,-3.921875 1.265625,-4.21875 1.59375,-4.40625 1.953125,-4.40625 2.515625,-4.40625 2.9375,-4 2.9375,-3.484375 2.9375,-3.09375 2.703125,-2.75 2.265625,-2.5 L 1.625,-2.140625 C 0.59375,-1.546875 0.296875,-1.09375 0.234375,0 H 3.53125 Z m 0,0"
             id="id-363e463d-bf3c-4961-9d3c-a514dd17b938"
             style="fill:#0000ff" />
        </g>
      </g>
    </g>
    <g
       transform="matrix(0.352778,0,0,0.352778,47.707372,6.6051402)"
       ns3:version="1.8.1"
       ns3:texconverter="pdflatex"
       ns3:pdfconverter="inkscape"
       ns3:text="$\\va*r_1$"
       ns3:preamble="/Users/jeremy/Library/Application Support/org.inkscape.Inkscape/config/inkscape/extensions/textext/default_packages.tex"
       ns3:scale="1.0"
       ns3:alignment="middle center"
       ns3:stroke-to-path="0"
       ns3:inkscapeversion="1.2.2"
       ns3:jacobian_sqrt="0.352778"
       id="g12817"
       style="fill:#ff0000"
       inkscape:export-filename="./g12817.pdf"
       inkscape:export-xdpi="600.1"
       inkscape:export-ydpi="600.1">
      <defs
         id="id-3415e5ed-b431-4f40-8da5-aeba6d63df64">
        <g
           id="id-6b1ee9de-a74c-4668-8234-e03b7943251c">
          <g
             id="id-f7e0e32e-fb00-49bd-9c50-ee9fea451659" />
          <g
             id="id-b56633c0-bca8-4ceb-9574-1a44f2bec8d4">
            <path
               d="m 5.359375,-5.9375 c -0.140625,0.140625 -0.46875,0.421875 -0.46875,0.59375 0,0.09375 0.09375,0.203125 0.1875,0.203125 0.09375,0 0.140625,-0.078125 0.203125,-0.140625 C 5.390625,-5.421875 5.625,-5.703125 6.0625,-5.921875 6.125,-5.96875 6.234375,-6.015625 6.234375,-6.125 6.234375,-6.234375 6.15625,-6.28125 6.09375,-6.328125 5.875,-6.484375 5.765625,-6.65625 5.6875,-6.890625 5.65625,-6.984375 5.625,-7.125 5.484375,-7.125 c -0.140625,0 -0.203125,0.140625 -0.203125,0.21875 0,0.046875 0.078125,0.359375 0.234375,0.578125 H 2.15625 c -0.15625,0 -0.34375,0 -0.34375,0.203125 0,0.1875 0.1875,0.1875 0.34375,0.1875 z m 0,0"
               id="id-97011e01-49e6-4aaf-a11e-eaa4ba8d8d33" />
          </g>
          <g
             id="id-c846fa79-3bb8-4f42-855f-4d4510cbd304" />
          <g
             id="id-3de975e0-b221-4202-b96d-34816e694618">
            <path
               d="M 1.78125,-5.390625 0.625,0 H 2.03125 L 2.625,-2.859375 c 0.171875,-0.8125 0.6875,-1.234375 1.5,-1.234375 0.15625,0 0.25,0.015625 0.4375,0.046875 L 4.859375,-5.46875 c -0.078125,0 -0.140625,0 -0.171875,0 -0.640625,0 -1.28125,0.421875 -1.75,1.140625 l 0.234375,-1.0625 z m 0,0"
               id="id-1f621cac-a97d-4841-be65-ffd50489539b" />
          </g>
          <g
             id="id-fadf62c6-411e-41d1-baf4-d955b8a993ad" />
          <g
             id="id-c5d25e49-3fc1-4c89-931d-9cc656d6a694">
            <path
               d="M 1.8125,-3.515625 V 0 h 0.609375 v -4.9375 h -0.40625 c -0.21875,0.75 -0.359375,0.859375 -1.3125,0.984375 v 0.4375 z m 0,0"
               id="id-f25e3380-6bc7-4407-a6b3-773d00d9030a" />
          </g>
        </g>
      </defs>
      <g
         fill="#000000"
         fill-opacity="1"
         id="id-bd6f6bf6-6d26-4919-bd15-fc4b4caf3b46"
         transform="translate(-149.337,-126.49)"
         style="fill:#ff0000">
        <g
           transform="translate(147.891,133.615)"
           id="g12806"
           style="fill:#ff0000">
          <path
             d="m 5.359375,-5.9375 c -0.140625,0.140625 -0.46875,0.421875 -0.46875,0.59375 0,0.09375 0.09375,0.203125 0.1875,0.203125 0.09375,0 0.140625,-0.078125 0.203125,-0.140625 C 5.390625,-5.421875 5.625,-5.703125 6.0625,-5.921875 6.125,-5.96875 6.234375,-6.015625 6.234375,-6.125 6.234375,-6.234375 6.15625,-6.28125 6.09375,-6.328125 5.875,-6.484375 5.765625,-6.65625 5.6875,-6.890625 5.65625,-6.984375 5.625,-7.125 5.484375,-7.125 c -0.140625,0 -0.203125,0.140625 -0.203125,0.21875 0,0.046875 0.078125,0.359375 0.234375,0.578125 H 2.15625 c -0.15625,0 -0.34375,0 -0.34375,0.203125 0,0.1875 0.1875,0.1875 0.34375,0.1875 z m 0,0"
             id="id-f3817653-281a-46bf-a431-390bcfa6ee46"
             style="fill:#ff0000" />
        </g>
      </g>
      <g
         fill="#000000"
         fill-opacity="1"
         id="id-d94f0dc9-0aa3-458f-bd80-f56a31d07fd0"
         transform="translate(-149.337,-126.49)"
         style="fill:#ff0000">
        <g
           transform="translate(148.712,134.765)"
           id="g12810"
           style="fill:#ff0000">
          <path
             d="M 1.78125,-5.390625 0.625,0 H 2.03125 L 2.625,-2.859375 c 0.171875,-0.8125 0.6875,-1.234375 1.5,-1.234375 0.15625,0 0.25,0.015625 0.4375,0.046875 L 4.859375,-5.46875 c -0.078125,0 -0.140625,0 -0.171875,0 -0.640625,0 -1.28125,0.421875 -1.75,1.140625 l 0.234375,-1.0625 z m 0,0"
             id="id-5642f5c7-85a7-4155-bf88-87266487b340"
             style="fill:#ff0000" />
        </g>
      </g>
      <g
         fill="#000000"
         fill-opacity="1"
         id="id-5cd845d3-7a28-49c4-bb5b-9a1fd4a88c74"
         transform="translate(-149.337,-126.49)"
         style="fill:#ff0000">
        <g
           transform="translate(153.584,136.259)"
           id="g12814"
           style="fill:#ff0000">
          <path
             d="M 1.8125,-3.515625 V 0 h 0.609375 v -4.9375 h -0.40625 c -0.21875,0.75 -0.359375,0.859375 -1.3125,0.984375 v 0.4375 z m 0,0"
             id="id-3d4d58e2-5aac-44b7-b599-7c0658fb62cb"
             style="fill:#ff0000" />
        </g>
      </g>
    </g>
  </g>
</svg>
